<?xml version="1.0" standalone="no"?>
<!DOCTYPE svg PUBLIC "-//W3C//DTD SVG 1.1//EN" "http://www.w3.org/Graphics/SVG/1.1/DTD/svg11.dtd" >
<!--
2013-9-30: Created.
-->
<svg>
<metadata>
Created by iconfont
</metadata>
<defs>

<font id="iconfont" horiz-adv-x="1024" >
  <font-face
    font-family="iconfont"
    font-weight="500"
    font-stretch="normal"
    units-per-em="1024"
    ascent="896"
    descent="-128"
  />
    <missing-glyph />
    
    <glyph glyph-name="xiugaitianchong" unicode="&#59039;" d="M934.989824 97.795072 728.061952 304.72704c0 0-25.198592 21.021696-8.148992 47.665152 16.918528 40.154112 26.3424 84.230144 26.3424 130.541568 0 186.354688-151.068672 337.419264-337.424384 337.419264-32.124928 0-63.101952-4.70016-92.489728-13.186048-25.182208-8.679424-7.297024-26.976256-7.297024-26.976256L464.493568 624.7424c49.924096-49.92 49.924096-130.86208 0-180.786176l-15.066112-15.062016c-49.92-49.924096-130.86208-49.924096-180.786176 0L110.743552 586.790912c0 0-16.201728 13.57312-24.827904-6.810624-9.329664-30.738432-14.501888-63.26272-14.501888-97.045504 0-186.354688 151.064576-337.42848 337.419264-337.42848 50.5088 0 98.400256 11.140096 141.4144 31.04256 19.42528 10.06592 33.886208-6.510592 33.886208-6.510592l211.454976-211.64032c21.174272-21.178368 50.19136-29.737984 77.707264-25.67168 0 0 71.246848 6.39488 87.115776 85.777408C965.049344 46.480384 956.57472 76.214272 934.989824 97.795072z"  horiz-adv-x="1024" />

    
    <glyph glyph-name="quanxianguanli" unicode="&#58939;" d="M534.346667 372.074667l324.544 0 0-399.146667L165.109333-27.072l0 399.146667L681.056 372.074667l-96.170667 99.946667L152.885333 472.021333C104.458667 472.021333 65.162667 432.746667 65.162667 384.277333l0-423.552c0-48.448 39.296-87.722667 87.722667-87.722667l718.208 0c48.448 0 87.722667 39.274667 87.722667 87.722667L958.816 384.277333c0 48.469333-39.274667 87.744-87.722667 87.744L434.016 472.021333 534.346667 372.074667zM786.528 396.928l-99.989333 0L686.538667 621.461333c0 96.277333-78.293333 174.570667-174.570667 174.570667-96.256 0-174.549333-78.293333-174.549333-174.570667l0-49.856L237.472 571.605333l0 49.856C237.472 772.842667 360.629333 896 511.989333 896c151.381333 0 274.538667-123.157333 274.538667-274.538667L786.528 396.928z"  horiz-adv-x="1024" />

    
    <glyph glyph-name="kehutuijian" unicode="&#58973;" d="M648.3-64 64-64 64 97.5c0 157.5 123.2 283.9 280.5 287.9 5 0.1 10 0.1 14.9 0 37.1-0.9 73-8.8 106.8-23.5 16.2-7 35.1 0.4 42.1 16.7 7 16.2-0.4 35.1-16.7 42.1-4.8 2.1-9.6 4-14.4 5.9 75.4 43.4 126.2 124.8 126.2 218C603.4 783.4 490.9 896 352 896S100.6 783.4 100.6 644.6c0-93.2 50.7-174.6 126.1-218-47.2-17.9-90.3-46.1-126.5-83.2C35.6 277.3 0 189.9 0 97.5l0-169.7C0-103 25-128 55.7-128l592.5 0c17.7 0 32 14.3 32 32S665.9-64 648.3-64zM164.6 644.6c0 50.1 19.5 97.1 54.9 132.5C254.9 812.5 301.9 832 352 832c50.1 0 97.1-19.5 132.5-54.9 35.4-35.4 54.9-82.5 54.9-132.5 0-50.1-19.5-97.1-54.9-132.5-35.4-35.4-82.5-54.9-132.5-54.9-50.1 0-97.1 19.5-132.5 54.9C184.1 547.4 164.6 594.5 164.6 644.6zM1016.7 273.4l-0.1 0.2c-7.9 23.8-21.9 45.9-40.3 63.9-18.6 18.3-41.3 31.9-65.4 39.4-27.3 8.6-56 9.4-82.8 2.2-24.2-6.4-47-18.5-67.8-36.1l-1-0.9-3.5-3.5c-22 20.1-46.4 33.7-72.7 40.6-26.8 7-55.3 6.1-82.5-2.4-24.4-7.6-47.1-21.2-65.5-39.4-18.5-18.2-32.5-40.3-40.4-63.9l0-0.1c-8.7-26.6-9.6-53.6-2.7-80l0-0.2c6.9-25.7 21.8-50.7 43.1-72.1l220.4-220.4 217.9 217.7 1.3 1 1.7 1.7c20.9 21.1 35.7 45.9 42.9 71.9l0.1 0.3C1026.4 219.7 1025.5 246.6 1016.7 273.4zM957.6 209.9c-4.1-14.7-12.7-29.3-25-42.1l-1-0.8L755.6-8.8l-175 175c-13.4 13.6-22.6 28.6-26.7 43.6-3.7 14.3-3.2 28.9 1.6 43.6 4.7 14 13.1 27.3 24.5 38.4l0.1 0.1c11.2 11.1 24.8 19.3 39.5 23.9l0.1 0c15.7 5 32.1 5.5 47.2 1.6 15.3-4 29.9-12.1 43.7-24.1l-20.7-20.8c-12.5-12.5-12.4-32.8 0.1-45.3 12.5-12.5 32.8-12.4 45.3 0.1l43.4 43.6c0.1 0.1 0.1 0.1 0.2 0.2 0 0 0 0 0 0l23.8 23.9c13.2 10.9 27.2 18.4 41.8 22.2l0.1 0c15.4 4.1 31.3 3.6 47.2-1.4l0.1 0c14.5-4.5 28.2-12.8 39.7-24 11.2-10.9 19.6-24.2 24.3-38.3C960.7 238.7 961.3 224 957.6 209.9z"  horiz-adv-x="1025" />

    
    <glyph glyph-name="shanchu" unicode="&#58955;" d="M875.432137 747.432137c-198.090484 198.090484-523.981279 198.090484-722.071763 0s-198.090484-523.981279 0-722.071763 523.981279-198.090484 722.071763 0S1073.522621 542.951638 875.432137 747.432137zM690.121685 249.01092c12.780031-12.780031 12.780031-31.950078 0-44.730109-12.780031-12.780031-31.950078-12.780031-44.730109 0L511.201248 338.471139l-134.190328-134.190328c-12.780031-12.780031-31.950078-12.780031-44.730109 0-12.780031 12.780031-12.780031 31.950078 0 44.730109L466.471139 383.201248 332.280811 517.391576C319.50078 530.171607 319.50078 549.341654 332.280811 562.121685s31.950078 12.780031 44.730109 0L511.201248 427.931357l134.190328 134.190328c12.780031 12.780031 31.950078 12.780031 44.730109 0 12.780031-12.780031 12.780031-31.950078 0-44.730109L555.931357 383.201248 690.121685 249.01092z"  horiz-adv-x="1024" />

    
    <glyph glyph-name="ai-user" unicode="&#58892;" d="M983.605 76.362c3.383-10.148 5.97-23.282 7.562-39.201 1.592-15.919 2.388-3.184 2.388-19.103 0-15.919-1.194-31.042-3.383-45.37-2.388-14.327-5.97-25.073-10.546-32.435-3.383-4.776-13.133-9.75-29.052-15.322-15.919-5.572-182.075-52.931-415.689-52.931-213.516 0-397.382 34.624-426.634 41.191-29.251 6.567-46.763 12.138-52.931 16.715-7.562 5.572-13.133 22.088-16.715 49.747-3.582 27.859-2.189 34.823 4.577 78.203 4.179 25.073 14.327 44.176 30.445 56.911 16.317 12.934 35.619 23.083 57.508 30.445 22.088 7.562 124.368 42.783 147.849 48.951 23.481 6.169 43.977 14.924 61.488 26.466 14.327 8.756 25.272 17.312 33.032 25.471 7.761 8.159 13.332 16.317 16.317 24.476 2.985 8.159 4.577 16.516 4.577 25.471 0 8.756-0.398 18.307-0.995 28.654-1.393 16.317-6.567 28.853-15.72 37.609-9.154 8.756-19.302 17.909-31.042 27.461-5.572 4.776-10.148 11.342-14.327 19.899-4.179 8.557-7.761 17.113-11.143 25.869-3.383 10.148-6.766 20.695-10.148 31.44-4.776 1.393-9.551 3.582-14.327 7.164-4.179 3.383-8.557 8.159-13.332 14.327-4.776 6.169-8.756 14.924-12.337 26.466-3.383 11.342-4.577 21.889-3.383 31.042 0.995 9.154 2.786 17.113 5.572 23.879 2.587 7.562 6.766 14.526 12.337 21.491-0.597 25.67 0.597 51.538 4.179 77.407 2.587 21.69 7.562 44.773 14.725 69.248s17.511 46.564 31.042 66.065c12.934 18.307 27.262 33.43 43.181 45.37 15.919 11.939 32.037 21.292 48.354 28.058 16.317 6.766 32.634 11.342 49.349 14.327 16.516 2.587 32.634 4.179 48.354 4.179 19.501 0 38.604-2.388 56.513-7.164 17.909-4.776 34.624-10.745 50.344-18.307 15.521-7.562 29.649-15.72 41.589-24.874 12.337-9.154 22.088-18.506 29.649-28.058 16.914-21.69 29.649-45.569 38.206-71.636 8.557-26.068 14.526-50.543 17.71-73.626 4.179-27.063 5.771-54.324 5.174-81.387 4.776-2.587 8.557-6.766 11.143-12.337 2.587-4.776 4.975-10.745 6.567-18.307 1.592-7.562 1.791-16.516 0.398-27.461-1.99-14.327-5.373-25.471-9.551-34.027-4.577-8.557-9.353-15.123-14.725-19.899-6.169-5.572-12.536-9.154-19.302-11.143-2.587-10.745-5.771-21.491-9.154-31.44-3.383-8.756-7.363-17.511-11.541-25.869-4.577-8.557-9.353-15.123-14.725-19.899-6.169-5.572-11.74-9.949-17.312-13.73-5.572-3.582-10.148-7.562-14.327-11.541-4.179-4.179-7.562-8.955-10.148-14.725-2.587-5.771-4.776-12.735-6.169-20.894-1.99-10.148-2.587-20.496-1.99-31.042 0.597-10.347 3.383-21.093 8.159-31.44 4.776-10.347 12.536-20.496 23.481-30.047 10.745-9.551 25.471-17.909 43.778-25.471 16.914-6.766 35.619-12.735 55.518-17.71 20.098-5.174 100.689-39.798 119.195-46.962 18.506-7.164 35.221-16.118 49.747-26.864 14.128-11.939 24.476-26.068 30.644-43.778v0zM531.501-61.935c3.383 0 8.557 2.189 15.72 6.567 7.164 4.577 14.128 9.551 20.894 15.72 6.766 6.169 12.735 12.337 17.71 18.307 5.174 6.169 7.562 10.745 7.562 14.327 0 4.179-0.995 11.143-2.985 21.491-1.99 10.148-4.577 21.491-7.164 33.43-2.587 12.337-5.572 24.277-8.159 36.216-2.587 11.939-5.174 21.491-7.164 29.052 6.766 5.572 12.536 11.342 17.312 17.71 4.776 6.567 7.164 13.133 7.164 19.899 0 5.572-1.791 10.944-5.572 16.715-3.582 5.771-7.96 10.546-12.735 14.725-5.572 4.776-11.143 9.551-17.312 14.327h-50.742c-6.766-4.776-12.536-9.551-17.312-14.327-4.179-4.179-7.761-8.756-11.143-14.327-3.383-5.572-5.174-10.745-5.174-16.317 0-4.179 2.388-9.551 7.562-16.317 5.174-6.766 11.342-13.332 18.705-19.302-1.99-6.169-4.776-14.924-8.159-26.466-3.383-11.342-6.567-23.481-9.551-36.216-2.985-12.536-5.771-24.476-8.159-35.619-2.388-11.143-3.383-19.302-3.383-24.874 0-3.383 2.388-8.159 7.562-14.327 5.174-6.169 11.143-12.337 18.307-18.307 7.164-6.169 14.128-11.342 20.894-15.72 6.965-3.98 12.138-6.368 15.322-6.368v0z"  horiz-adv-x="1024" />

    
    <glyph glyph-name="mendianguanli" unicode="&#58937;" d="M861.2 518.8c-0.3 2.8-1 5.5-2.1 8.2l-79.5 191.8c-4.6 11.1-15.6 18.3-27.8 18.3L602 737.1c-0.7 0-1.4 0-2.1-0.1-0.7 0-1.4 0.1-2.2 0.1L426.3 737.1c-0.7 0-1.4 0-2.2-0.1-0.7 0-1.4 0.1-2.1 0.1L272.1 737.1c-12.2 0-23.2-7.2-27.8-18.3L164.8 527c-1.1-2.6-1.8-5.4-2.1-8.2-2.8-27.8 4.2-55.6 19.4-78.7l0-320.9c0-48.7 40.4-88.3 90-88.3 16.6 0 30 13.2 30 29.4 0 16.3-13.4 29.4-30 29.4-16.5 0-30 13.2-30 29.4L242.1 178l449.8 0c16.6 0 30 13.2 30 29.4 0 16.3-13.4 29.4-30 29.4L242.1 236.8 242.1 392.2c14.2-5.4 29.5-8.2 45-8.2 35.2 0 69 14.7 92.6 40.3 6.3 6.9 11.8 14.4 16.4 22.4 4-6.2 8.6-12.2 13.6-17.8C435.7 400.4 473 384 512 384c39 0 76.3 16.4 102.2 44.9 5.1 5.6 9.6 11.5 13.6 17.8 4.5-8 10-15.5 16.4-22.4 23.6-25.6 57.4-40.3 92.6-40.3 15.5 0 30.8 2.9 45 8.2l0-273.1c0-16.2-13.4-29.4-30-29.4L392.1 89.7c-16.6 0-30-13.2-30-29.4 0-16.3 13.4-29.4 30-29.4l359.8 0c49.6 0 90 39.6 90 88.3L841.9 440.1C857.1 463.3 864.1 491.1 861.2 518.8zM352.2 521.8c-0.6-2.9-0.8-5.9-0.5-8.9 1.8-18.2-4-35.6-16.5-49.1-24.9-27.1-71.4-27.1-96.3 0-11.6 12.6-17.5 28.5-16.8 45.3l70.1 169.1 92.9 0L352.2 521.8zM569.5 468.1c-29.6-32.6-85.3-32.6-115 0-14.8 16.3-21.6 37.2-19.1 58.9l17.6 151.2 117.8 0L588.5 527C591.1 505.3 584.3 484.4 569.5 468.1zM785.1 463.8c-24.9-27.1-71.4-27.1-96.3 0-12.5 13.5-18.3 31-16.5 49.1 0.3 3 0.1 6-0.5 8.9l-33 156.4 92.9 0 70.1-169.1C802.5 492.4 796.7 476.4 785.1 463.8z"  horiz-adv-x="1024" />

    
    <glyph glyph-name="tuichu1" unicode="&#58956;" d="M802.151864 752.318097c31.235972-22.212313 59.004583-47.37867 83.296916-75.486189 24.297287-28.115447 45.120277-58.481358 62.471944-91.10467 17.356621-32.624303 30.543292-67.159173 39.568933-103.600644 9.023659-36.441472 13.533507-73.402205 13.533507-110.886164 0-64.556918-12.320575-125.116314-36.960733-181.691069-24.64214-56.569801-57.962096-105.853091-99.955902-147.845906-41.993807-41.998761-91.277096-75.313762-147.850861-99.955902-56.56881-24.64115-117.134151-36.965688-181.684132-36.965688-63.860275 0-124.078781 12.324539-180.648582 36.965688C297.348198-33.610306 247.89149-0.295305 205.55283 41.703456c-42.343615 41.992816-75.661588 91.276106-99.955902 147.845906C81.300632 246.124117 69.155456 306.684504 69.155456 371.240431c0 36.787316 4.33643 72.883934 13.015236 108.282918 8.678806 35.398984 20.996408 69.064784 36.960733 100.99839 15.968289 31.926669 35.749783 61.774309 59.350427 89.536975 23.599653 27.768611 49.974978 52.757587 79.131921 74.968909 15.272637 11.107643 31.755233 15.271646 49.456708 12.496965 17.696519-2.781618 32.100087-11.454478 43.20872-26.030472 11.108634-14.58194 15.271646-30.890128 12.496965-48.938437-2.781618-18.047318-11.454478-32.622321-26.029481-43.732937-43.732937-31.926669-77.225319-71.144804-100.480119-117.652422-23.247863-46.507618-34.873777-96.483587-34.873777-149.930881 0-45.810975 8.67286-89.026632 26.030472-129.631116 17.351666-40.605475 41.123746-76.003468 71.316239-106.197944 30.201412-30.19943 65.599405-54.144928 106.20488-71.846402 40.606466-17.696519 83.813205-26.548743 129.631116-26.548743 45.810975 0 89.018704 8.852223 129.62517 26.548743 40.606466 17.701474 76.009414 41.646971 106.202899 71.846402 30.195466 30.194475 54.139973 65.592469 71.841447 106.197944 17.702465 40.606466 26.548743 83.820141 26.548743 129.631116 0 54.138982-12.490028 105.333829-37.478013 153.576613-24.99393 48.240803-60.048061 87.977208-105.161402 119.21318-15.272637 10.411991-24.468723 24.643131-27.592221 42.69045-3.12548 18.048309 0.518271 34.708287 10.930261 49.981915 10.411991 14.575003 24.64214 23.427227 42.69045 26.547752C770.229159 766.369875 786.880218 762.730088 802.151864 752.318097L802.151864 752.318097zM534.570544 368.111978c-18.0493 0-33.494364 6.421405-46.336182 19.264214-12.841818 12.840827-19.263223 28.286882-19.263223 46.335191L468.971138 829.365044c0 18.048309 6.420414 33.6658 19.263223 46.853462 12.841818 13.188654 28.286882 19.781494 46.336182 19.781494 18.738016 0 34.529915-6.59284 47.371733-19.781494 12.841818-13.187663 19.262232-28.805153 19.262232-46.853462l0-395.65366c0-18.047318-6.420414-33.493373-19.262232-46.335191C569.100458 374.533383 553.308559 368.111978 534.570544 368.111978L534.570544 368.111978z"  horiz-adv-x="1024" />

    
    <glyph glyph-name="gongying" unicode="&#58935;" d="M574.167387 514.257669l63.453171 0 0-190.358489-63.453171 0 0 190.358489ZM510.715239 894.976694C230.320131 894.976694 3.090896 667.686061 3.090896 387.352351c0-280.334733 227.229235-507.624343 507.624343-507.624343 280.395108 0 507.625366 227.28961 507.625366 507.624343C1018.340605 667.685038 791.110347 894.976694 510.715239 894.976694zM320.35675 577.71084l0-507.624343-63.452147 0L256.904603 514.257669l-63.453171 0 0-63.453171-63.453171 0 0 63.453171 63.453171 0L193.451432 577.71084l63.453171 0 0 63.453171 63.452147 0 0 63.453171 63.454194 0 0-63.453171L320.35675 641.164011 320.35675 577.71084zM827.982116 514.257669 701.075775 514.257669l0-190.358489 126.906342 0 0-63.453171L701.075775 260.44601l0-63.453171 63.453171 0 0-63.453171 63.453171 0 0-63.453171-63.453171 0 0 63.453171-63.453171 0 0 63.453171-63.455217 0 0 63.453171L574.167387 260.44601l0-63.453171-63.452147 0 0-63.453171-63.452147 0 0-63.453171-63.453171 0 0 63.453171 63.453171 0 0 63.453171 63.452147 0 0 63.453171L383.809921 260.44601l0 63.453171 126.905318 0L510.715239 514.257669 383.809921 514.257669 383.809921 577.71084l126.905318 0L510.715239 704.617182l63.452147 0L574.167387 577.71084l63.453171 0L637.620557 704.617182l63.455217 0L701.075775 577.71084l126.906342 0L827.982116 514.257669 827.982116 514.257669z"  horiz-adv-x="1024" />

    
    <glyph glyph-name="shezhi" unicode="&#58900;" d="M512 559.73442c-96.899934 0-175.73442-78.834486-175.73442-175.73442 0-96.900957 78.834486-175.735443 175.73442-175.735443s175.73442 78.834486 175.73442 175.735443C687.73442 480.900957 608.899934 559.73442 512 559.73442zM512 269.662929c-63.044872 0-114.336048 51.291177-114.336048 114.337071 0 63.044872 51.291177 114.336048 114.336048 114.336048s114.336048-51.291177 114.336048-114.336048C626.336048 320.955128 575.044872 269.662929 512 269.662929zM934.902776 313.422571l-56.914244 32.859385c1.274016 12.503778 1.917676 25.146727 1.917676 37.718043 0 12.571317-0.64366 25.214265-1.917676 37.718043l56.916291 32.860409c21.584598 12.463869 29.005614 40.163745 16.542768 61.746296L846.321298 698.410829c-12.461823 21.585621-40.163745 29.005614-61.748343 16.545838l-56.915267-32.860409c-20.451798 14.820544-42.348504 27.486004-65.328891 37.786605L662.328797 785.534096c0 24.924669-20.276812 45.202505-45.202505 45.202505L406.872684 830.736601c-24.924669 0-45.202505-20.277836-45.202505-45.202505l0-65.651232c-22.979364-10.3006-44.87607-22.966061-65.327868-37.786605l-56.916291 32.860409c-21.585621 12.462846-49.285496 5.040806-61.747319-16.545838L72.551386 516.324748c-12.461823-21.585621-5.039783-49.285496 16.545838-61.747319l56.914244-32.859385c-1.274016-12.504802-1.917676-25.146727-1.917676-37.718043 0-12.571317 0.64366-25.215288 1.917676-37.718043l-56.914244-32.859385c-21.584598-12.461823-29.007661-40.161698-16.545838-61.748343l105.127316-182.087105c12.463869-21.583574 40.161698-29.005614 61.747319-16.542768l56.915267 32.860409c20.451798-14.81952 42.35055-27.486004 65.328891-37.786605l0-65.651232c0-24.924669 20.277836-45.203528 45.202505-45.203528l210.253608 0c24.924669 0 45.202505 20.277836 45.202505 45.203528l0 65.651232c22.979364 10.299577 44.87607 22.965038 65.328891 37.786605l56.915267-32.860409c21.582551-12.463869 49.28345-5.039783 61.748343 16.544815l105.126292 182.085058C963.909413 273.258827 956.488397 300.958702 934.902776 313.422571zM801.246707 114.314815l-52.136428 30.101575c-15.928784 9.195429-35.611056 7.895831-50.14405-3.310396-21.530362-16.600073-45.131897-30.250978-70.148663-40.573067-16.940834-6.991228-27.887141-23.3805-27.887141-41.751916l0-60.118216L423.068552-1.337205l0 60.118216c0 18.371416-10.946306 34.760688-27.888164 41.751916-25.016767 10.323113-48.617277 23.974018-70.14457 40.571021-14.531971 11.207249-34.217313 12.509918-50.14712 3.311419l-52.135404-30.100552L133.821845 268.34798l52.114938 30.088272c15.895015 9.17701 24.616654 26.840298 22.217001 45.001937-1.766226 13.362332-2.662643 27.009144-2.662643 40.561811 0 13.552667 0.895393 27.200502 2.662643 40.563858 2.39863 18.158568-6.321986 35.821857-22.217001 44.998867l-52.114938 30.089295 88.931448 154.033166 52.135404-30.100552c15.925714-9.196453 35.610032-7.897877 50.145074 3.308349 21.529339 16.600073 45.130873 30.250978 70.146617 40.574091 16.941857 6.990205 27.889187 23.378453 27.889187 41.751916l0 60.118216L600.930425 769.337205l0-60.118216c0-18.373463 10.94733-34.762735 27.889187-41.751916 25.015743-10.32209 48.617277-23.972994 70.149687-40.576137 14.534018-11.20418 34.217313-12.500709 50.142004-3.306302l52.135404 30.100552 88.930425-154.033166-52.115961-30.089295c-15.895015-9.178033-24.615631-26.840298-22.215978-45.000913 1.76725-13.361309 2.662643-27.009144 2.662643-40.561811 0-13.553691-0.895393-27.200502-2.662643-40.563858-2.399653-18.158568 6.320962-35.821857 22.217001-44.99989l52.115961-30.088272L801.246707 114.314815z"  horiz-adv-x="1024" />

    
    <glyph glyph-name="shangjia" unicode="&#58932;" d="M1023.053953 463.310324c0-70.070892-57.193607-130.420375-127.763872-130.420375-70.568219 0-127.763872 60.35153-127.763872 130.420375l0 0 0 0 0 0c0-70.070892-57.195653-130.420375-127.763872-130.420375-70.570265 0-127.763872 60.35153-127.763872 130.420375l0 0 0 0 0 0 0 0c0-70.070892-57.19463-130.420375-127.763872-130.420375s-127.763872 60.35153-127.763872 130.420375l0 0 0 0 0 0 0 0c0-70.070892-57.19463-130.420375-127.763872-130.420375-70.568219 0-127.763872 60.35153-127.763872 130.420375l0 0 0 0 0 0 102.210893 227.327472L920.84306 690.637796 1023.053953 463.310324 1023.053953 463.310324 1023.053953 463.310324zM869.737102 741.744777 154.262898 741.744777c-31.741935 0-51.104935 24.828478-51.104935 51.104935 0 26.276457 16.019859 51.104935 57.494459 51.104935l702.700273 0c38.527478 0 57.493435-24.829502 57.493435-51.104935C920.845107 766.573255 896.189567 741.744777 869.737102 741.744777zM154.262898 307.335946 154.262898 307.335946C158.855496 307.759595 149.795143 306.586886 154.262898 307.335946 155.236062 307.509908 153.314293 307.18552 154.262898 307.335946c2.071172 0.400113 23.50739-0.449231 25.554002 0 8.682753 1.99647 17.392112-3.14462 25.552979 0l0 0 0 0 0-229.973742 613.264335 0L818.634214 307.335946l25.552979 0 0 0c8.136308-3.14462 16.892739 1.99647 25.552979 0 2.046612-0.449231-2.070148 0.400113 0 0 0.949628-0.149403-0.973164 0.173962 0 0 4.493338-0.748037-4.590552 0.423649 0 0l0 0c5.265934-0.474814 20.162202 0 25.552979 0 10.930957 0 15.171538-1.89721 25.555026 0l0-332.184635c0-26.250874-24.65554-51.105958-51.106981-51.105958L154.264944-75.954647c-26.451442 0-51.104935 24.855084-51.104935 51.105958L103.16001 307.335946c10.381441-1.89721 14.624069 0 25.552979 0C134.099672 307.335946 148.999011 306.861132 154.262898 307.335946z"  horiz-adv-x="1024" />

    
    <glyph glyph-name="xiaoxiguanli" unicode="&#58930;" d="M958.144106 79.414957c0-78.526471-63.212694-142.190443-141.178393-142.190443H207.033263c-77.964676 0-141.178393 63.663972-141.178393 142.190443V693.745576c0 78.526471 63.212694 142.190443 141.178393 142.190443h609.93245c77.964676 0 141.178393-63.663972 141.178393-142.190443v-614.330619zM521.406231 627.958244c-152.062278 0-275.774881-110.478184-275.774881-246.277056 0-84.194564 47.578622-158.63088 119.964232-203.063859-19.441794-22.236444-45.977147-40.415478-77.639264-51.129494a184.53383 184.53383 0 0 0-57.043181-9.746991c25.578562-14.876826 56.615439-23.627117 90.099041-23.627117 50.539047 0 95.431489 19.938098 124.414591 50.868551a305.532625 305.532625 0 0 1 75.979462-9.584286c152.062278 0 275.774881 110.482277 275.77488 246.282173-0.001023 135.799896-123.712603 246.278079-275.77488 246.278079zM361.098151 335.423655c-31.273261 0-56.627718 25.359574-56.627718 56.637951 0 31.284517 25.354458 56.639998 56.627718 56.639998 31.284517 0 56.639998-25.354458 56.639999-56.639998-0.001023-31.278377-25.355481-56.637951-56.639999-56.637951z m164.717506-5.062296c-31.273261 0-56.627718 25.354458-56.627718 56.639998 0 31.279401 25.354458 56.639998 56.627718 56.639998 31.284517 0 56.639998-25.360598 56.639998-56.639998 0-31.284517-25.355481-56.639998-56.639998-56.639998z m173.012426 0c-31.28554 0-56.639998 25.354458-56.639999 56.639998 0 31.279401 25.354458 56.639998 56.639999 56.639998 31.273261 0 56.627718-25.360598 56.627718-56.639998 0-31.284517-25.354458-56.639998-56.627718-56.639998z"  horiz-adv-x="1024" />

    
    <glyph glyph-name="icon-xiugai" unicode="&#58891;" d="M821.236 449.763c-16.79 0-27.983-11.192-27.983-27.984v-358.212c0-39.177-27.987-72.76-67.169-72.76h-520.525c-39.183 0-83.956 33.582-83.956 72.76v520.529c0 39.178 44.773 78.36 83.956 78.36h296.646c16.792 0 27.985 11.193 27.985 27.985 0 16.791-11.193 27.984-27.985 27.984h-296.646c-78.358 0-139.926-55.97-139.926-134.329v-520.529c0-78.355 61.569-128.73 139.926-128.73h520.526c78.361 0 123.136 50.375 123.136 128.73v352.619c0 16.787-11.195 33.578-27.985 33.578M933.179 763.2l-44.774 44.776c-33.585 33.584-89.561 33.584-123.139 0l-78.357-95.149-425.381-414.183v-11.193l-55.969-184.702 39.177-33.582 173.511 61.566h11.193l408.589 430.973 95.151 78.36c33.581 33.583 33.581 89.551-0.002 123.134M283.919 147.524l27.983 78.361 50.376-50.376-78.36-27.984M412.649 203.493l-78.356 78.358 386.2 380.604 72.76-72.764-380.604-386.198M893.996 684.842l-55.968-55.97-83.957 83.955 55.974 55.973c5.592 0 16.79 5.594 22.385 5.594 5.599 0 16.79-5.594 22.389-5.594l44.778-44.776c5.597-11.198 5.597-27.989-5.601-39.182M893.996 684.842z"  horiz-adv-x="1024" />

    
    <glyph glyph-name="icon-quanxianxg" unicode="&#58926;" d="M940.421978 311.72593l-26.070772 26.119891c-10.232039 10.240225-24.041556 16.099676-37.801954 16.099676-12.172227 0-23.351847-4.496407-31.588439-12.677741L568.914756 65.115276c-0.290619-0.257873-0.197498-0.64059-0.413416-0.945535-0.367367-0.456395-0.74292-0.962931-0.905626-1.556449l-28.356838-103.969956c-1.647523-6.054903 0.039909-12.599969 4.519944-17.186428a17.785062 17.785062 0 0 1 12.472055-5.060249c1.560542 0 3.120061 0.180102 4.646834 0.596588l103.255689 28.14706c0.152473 0 0.230244-0.150426 0.352017-0.150426a4.494361 4.494361 0 0 1 3.244904 1.348717l276.071639 276.040941c8.212032 8.213056 12.70844 19.388583 12.70844 31.560809 0 13.779841-5.854335 27.570939-16.08842 37.785582zM581.299831-20.943752l14.389731 52.849672 38.395472-38.397519-52.785203-14.452153z m81.155344 35.970236l-44.85151 44.803415 199.201901 199.232601 44.466747-45.201482-198.817138-198.834534z m254.337639 254.375501l-27.415396-27.40414-44.464701 45.172829 27.037797 27.019377c4.26207 4.294816 12.567223 3.669576 17.460673-1.2382l26.071796-26.115798c2.738367-2.743484 4.297886-6.350638 4.297886-9.914814-0.001023-2.949168-1.072425-5.609765-2.988055-7.519254zM634.049219 320.853821c141.121088 0 256.091586 115.28977 256.091586 256.092609-3.876284 140.798746-119.16196 255.766175-259.966847 255.766175-141.126204 0-256.090563-115.288746-256.090563-256.088516 0-33.913391 5.812379-63.622016 17.761526-93.332689L80.208275 171.651684c-10.013051-10.003841-13.889335-17.757432-13.889335-31.642674v-77.506235c0-27.779693 23.899316-51.668777 51.67287-51.668776h77.503164c13.889335 0 21.963221 5.810333 31.645745 13.883195l37.462216 37.785581h59.419298c27.774577 0 51.67287 23.898293 51.67287 51.668777v51.668776h51.6698c27.773554 0 51.67287 23.898293 51.672869 51.667754v59.421344l61.678758 61.679781c29.711695-11.94096 59.422368-17.755386 93.332689-17.755386zM518.758426 391.897877l-29.710672-29.708625-49.732682-49.729612c-10.013051-10.013051-15.823384-21.968337-15.823383-35.854602v-59.096956h-51.670824c-27.76946 0-51.667753-23.898293-51.667753-51.667754v-51.668776H260.731768c-13.889335 0-25.838482-5.812379-35.84744-15.824407l-35.527144-35.84437h-73.626881v73.306586l299.686476 299.685454 37.783535 37.782511c-17.761526 29.713742-29.709649 65.563228-29.709649 103.346763 0 113.029286 91.3925 204.421786 204.420763 204.421786 113.031333 0 204.421786-91.3925 204.421786-204.421786 2.25946-114.970498-89.128947-206.361975-202.159256-206.361975-37.783535 0-73.308633 11.945053-103.340623 29.709649l-8.074909-8.073886zM653.289422 470.950328c3.228531 0 5.812379 0.321318 8.719592 1.291412 36.81651 12.272511 63.299675 38.433334 78.79867 78.479399l0.647753 1.608637v1.295506c0.322341 0.323365 0.322341 0.966001 0.644683 1.609661 0.64366 1.617847 0.963954 3.558036 1.287319 5.166673 3.232624 11.30651-3.227508 18.410302-6.132674 21.317514-33.259498 44.24162-67.494207 78.471213-104.956423 104.633059-5.811356 3.876284-13.883195 6.132674-21.313422 6.132674-3.228531 0-5.812379-0.321318-8.395204-1.287319-36.814464-12.275581-63.295582-38.432311-78.794577-78.472236l-0.6498-1.61887v-1.293459c-0.321318-0.320295-0.321318-0.968048-0.647752-1.613754-0.64366-2.261507-1.287319-4.523013-1.28732-6.780427 0-8.072863 2.583848-13.240559 4.846379-17.761526l0.320294-0.642636 0.321319-0.648776c33.258475-44.564985 67.815525-79.121012 105.277741-105.282858 5.811356-3.871167 13.883195-6.132674 21.313422-6.132674z m-87.841628 133.699048c9.04705 22.602787 23.576975 37.783535 44.24776 46.50108 37.782511-28.095895 66.846454-57.156768 89.128947-88.808652-6.785543-21.636786-21.313422-36.817534-44.568055-46.178739-37.462217 28.093848-66.523089 57.159838-88.808652 88.486311z"  horiz-adv-x="1024" />

    
    <glyph glyph-name="icon-chaxun" unicode="&#58931;" d="M771.010567 480.123244c0 194.228633-157.444868 351.723643-351.770716 351.723644-194.228633 0-351.675548-157.49501-351.675548-351.723644 0-194.23068 157.445892-351.724667 351.675548-351.724666 194.325847 0.001023 351.770715 157.49501 351.770716 351.724666zM419.239851 216.319c-145.671731 0-263.709077 118.085442-263.709077 263.805268 0 145.671731 118.037347 263.804245 263.709077 263.804244 145.769968 0 263.804245-118.132514 263.804245-263.804244 0-145.721873-118.034277-263.805268-263.804245-263.805268zM933.225065 71.230554L741.819734 262.636908c-27.53717-45.831838-66.071811-84.271312-112.003933-111.808482L821.319369-40.676166c30.946826-30.894637 81.060177-30.894637 111.904673 0 30.946826 30.848589 30.946826 81.060177 0.001023 111.90672z"  horiz-adv-x="1024" />

    
    <glyph glyph-name="icon-test" unicode="&#58894;" d="M234.4 257.52c0-99.632 128.405-180.4 286.8-180.4s286.8 80.768 286.8 180.4c0 99.632-128.405 180.4-286.8 180.4-158.395 0-286.8-80.768-286.8-180.4zM194.363 452.342c0-0 0-0 0-0 19.573-33.901 53.586-50.907 75.97-37.984 22.384 12.923 24.663 50.882 5.090 84.784-0 0-0 0-0 0-19.573 33.901-53.586 50.907-75.97 37.984-22.384-12.923-24.663-50.882-5.090-84.784 0-0 0-0 0-0zM344.94 554.142c0-0 0-0 0-0 8.737-46.821 41.98-79.895 74.251-73.873 32.271 6.022 51.349 48.859 42.612 95.68-0 0-0 0-0 0-0 0-0 0-0 0-8.737 46.821-41.98 79.895-74.251 73.873-32.271-6.022-51.349-48.859-42.612-95.68zM613.23 492.57c0-0 0-0 0-0 34.245-4.588 68.341 38.98 76.155 97.31 7.814 58.33-13.613 109.335-47.858 113.923-0 0-0 0-0 0-0 0-0 0-0 0-34.245 4.588-68.341-38.98-76.155-97.31-7.814-58.33 13.613-109.335 47.858-113.923 0-0 0-0 0-0zM758.202 408.547c0-0 0-0 0-0 21.963-12.68 57.175 7.19 78.648 44.382 21.473 37.192 21.075 77.622-0.888 90.302-0 0-0 0-0 0-21.963 12.68-57.175-7.19-78.648-44.382-21.473-37.192-21.075-77.622 0.888-90.302z"  horiz-adv-x="1024" />

    
    <glyph glyph-name="guanlikehu" unicode="&#58950;" d="M940.709647 217.253647l-14.832941 1.731765c-5.210353 22.558118-12.980706 42.360471-23.552 60.009412l12.062118 14.245647c9.712941 11.896471 10.435765 26.834824 1.761882 35.493647l-35.614118 35.824941c-8.493176 8.432941-23.265882 8.056471-34.695529-0.813177l-16.790588-10.902588a12.830118 12.830118 0 0 1-0.737883-0.512 210.025412 210.025412 0 0 1-57.615059 22.573177l-1.505882 9.728c-0.346353 3.523765-4.050824 34.469647-24.154353 34.469647h-50.567529c-20.133647 0-23.823059-30.945882-24.139294-34.138353l-2.002824-16.278589-3.147294-0.572235c-10.827294-1.987765-22.648471-4.201412-31.472941-6.490353a367.932235 367.932235 0 0 1-137.020236 58.819765c76.137412 30.012235 130.228706 104.146824 130.228706 190.810353 0 113.152-92.039529 205.191529-205.191529 205.191529s-205.191529-92.039529-205.191529-205.191529c0-86.543059 53.925647-160.572235 129.882352-190.689882C177.498353 385.701647 50.145882 235.821176 50.145882 56.741647c0-43.565176 30.524235-57.976471 55.070118-69.556706l1.415529-0.587294c98.981647-34.921412 242.130824-44.242824 311.100236-44.242823 61.485176 0 159.382588 7.845647 242.883764 25.253647 2.605176-0.813176 5.180235-1.807059 7.81553-2.514824l1.837176-11.083294c1.099294-10.992941 7.574588-31.804235 24.154353-31.804235h50.56753c16.609882 0 23.055059 20.690824 23.958588 30.238117l1.551059 7.920941c19.425882 4.653176 38.942118 12.739765 58.262588 24.139295l16.368941-12.845177c11.474824-9.336471 26.699294-9.728 35.523765-0.933647l35.719529 35.900235c8.719059 8.719059 8.146824 24.018824-1.264941 35.508706l-12.272941 15.164236a207.887059 207.887059 0 0 1 25.479529 59.467294l12.122353 1.596235c11.565176 1.174588 38.384941 5.827765 38.384941 24.184471v50.567529c0 18.341647-26.819765 23.009882-38.113882 24.139294zM246.633412 611.297882c0 96.527059 78.546824 175.073882 175.073882 175.073883S596.781176 707.824941 596.781176 611.297882s-78.546824-175.073882-175.073882-175.073882-175.073882 78.546824-175.073882 175.073882zM117.383529 14.742588c-28.280471 13.417412-37.12 21.067294-37.12 41.999059 0 188.265412 153.178353 341.443765 341.443765 341.443765 69.842824 0 136.523294-21.007059 193.626353-60.461177a53.428706 53.428706 0 0 1-4.321882-3.222588c-0.828235-0.677647-1.746824-1.430588-2.861177-2.304l-19.591529 14.832941c-8.824471 7.198118-18.823529 8.282353-24.304941 2.800941l-34.198589-33.731764c-5.601882-5.601882-4.818824-15.977412 1.807059-24.109177l17.558588-21.519059a191.698824 191.698824 0 0 1-24.139294-59.617882l-31.819294-2.981647c-4.111059-0.406588-7.017412-2.017882-8.598588-4.818824-2.319059-4.065882-0.527059-7.920941 0.421647-9.984l0.572235-1.084235 0.030118-47.977412a10.345412 10.345412 0 0 0-0.602353-1.430588c-0.948706-2.078118-2.740706-5.963294-0.421647-10.029176 1.596235-2.785882 4.487529-4.397176 8.613647-4.818824l30.539294-3.011765c4.728471-19.892706 13.236706-39.604706 25.344-58.729411l-17.889882-21.38353c-4.291765-5.285647-7.107765-14.215529-4.336941-20.043294 0.918588-1.927529 2.409412-3.418353 4.291764-4.261647l32.90353-34.16847a13.402353 13.402353 0 0 1 6.490353-3.328c-56.681412-7.378824-111.570824-10.360471-153.057883-10.360471-66.921412 0.015059-205.266824 8.929882-300.378353 42.300235z m466.507295-30.177882c1.581176 0.768 3.207529 1.490824 4.638117 2.665412l22.437647 17.950117c1.505882-0.933647 3.011765-1.822118 4.532706-2.725647l1.490824-0.873412c0.316235-0.180706 0.647529-0.210824 0.963764-0.346352 5.165176-3.011765 10.450824-5.767529 15.811765-8.297412a1015.988706 1015.988706 0 0 0-49.874823-8.372706zM948.705882 150.723765c-3.629176-1.054118-8.372706-2.108235-11.715764-2.43953l-22.964706-3.026823a15.058824 15.058824 0 0 1-12.8-11.971765 179.109647 179.109647 0 0 0-29.334588-68.201412 15.028706 15.028706 0 0 1 0.602352-18.130823l18.642824-23.009883-27.979294-28.114823-24.048941 18.853647a15.013647 15.013647 0 0 1-17.468236 0.798118c-22.302118-14.411294-44.724706-23.687529-66.605176-27.587765a15.058824 15.058824 0 0 1-12.152471-11.926588l-3.674353-19.124706a23.024941 23.024941 0 0 0-1.024-4.517647h-36.818823a30.253176 30.253176 0 0 0-1.234824 5.632l-3.599058 21.895529a15.043765 15.043765 0 0 1-11.730824 12.288 174.787765 174.787765 0 0 0-25.178353 7.363765c-2.153412 0.813176-4.352 0.993882-6.520471 0.813176a186.714353 186.714353 0 0 0-28.777411 13.824c-0.240941 0.135529-0.496941 0.150588-0.752941 0.256l-0.737883 0.436706c-2.816 1.656471-5.571765 3.282824-8.282353 5.12a7.183059 7.183059 0 0 1-8.523294-0.331294l-26.518588-21.232941c-2.334118-1.897412-4.758588-2.063059-4.909177-2.198588l-33.942588 35.237647a10.782118 10.782118 0 0 0 1.92753 4.005647l21.232941 25.404235a7.228235 7.228235 0 0 1 0.466823 8.598588c-13.748706 20.630588-22.919529 41.953882-27.301647 63.352471a7.228235 7.228235 0 0 1-6.339764 5.737412l-32.225883 3.026823c0.105412 0.677647-1.475765 1.385412-1.475765 2.123294v48.308706c0 0.722824 1.581176 1.400471 1.475765 2.063059l32.677647 2.981647c3.192471 0.301176 6.204235 2.665412 6.806588 5.812706a178.145882 178.145882 0 0 0 26.187295 64.210823 7.168 7.168 0 0 1-0.346353 8.478118l-20.781177 25.554824c-2.153412 2.620235-2.484706 5.059765-2.816 4.788706l33.460706 32.978823a14.125176 14.125176 0 0 0 6.053647-3.147294l24.064-18.221177c2.469647-1.882353 5.872941-1.957647 8.432941-0.180705 3.764706 2.605176 6.098824 4.502588 7.996236 6.053647 3.297882 2.725647 4.532706 3.734588 11.625411 6.098823 0.481882 0.165647 0.843294 0.481882 1.264942 0.722824 1.385412 0.150588 2.665412 0.617412 3.96047 1.129411h0.015059c6.731294 2.228706 22.272 5.104941 33.611294 7.213177 5.601882 1.024 10.676706 1.972706 14.396235 2.755765a15.058824 15.058824 0 0 1 11.836236 12.890353l3.388235 27.482353c0.210824 2.093176 0.918588 4.954353 1.671529 7.348705h35.614118c0.783059-2.484706 1.520941-5.571765 1.776941-8.131764l3.20753-20.901647a15.028706 15.028706 0 0 1 12.257882-12.544c24.184471-4.276706 46.953412-13.296941 67.644235-26.804706a15.028706 15.028706 0 0 1 19.2 2.288941l5.330824 5.677176 15.872 10.300236 0.436706 0.301176 27.301647-27.437176-18.462118-21.805177a15.058824 15.058824 0 0 1-0.888471-18.281412c13.236706-19.169882 22.181647-41.788235 27.316706-69.165176 1.204706-6.490353 6.505412-11.414588 13.040942-12.182588l25.856-3.011765c3.041882-0.316235 7.664941-1.325176 11.248941-2.364235v-34.213647zM722.838588 222.960941c-5.616941 0-11.158588-0.858353-16.474353-2.529882a54.512941 54.512941 0 0 1-38.249411-52.193883 54.784 54.784 0 0 1 64.195764-53.910588 54.603294 54.603294 0 0 1 45.251765 53.910588 54.784 54.784 0 0 1-54.723765 54.723765z m4.336941-78.953412a24.636235 24.636235 0 0 0-28.943058 24.244706 24.515765 24.515765 0 0 0 24.606117 24.606118c13.552941 0 24.606118-11.038118 24.606118-24.606118a24.545882 24.545882 0 0 0-20.269177-24.244706zM722.838588 319.367529c-82.507294 0-149.654588-67.132235-149.654588-149.654588s67.132235-149.654588 149.654588-149.654588 149.654588 67.132235 149.654588 149.654588-67.147294 149.654588-149.654588 149.654588z m0-284.235294c-74.209882 0-134.595765 60.385882-134.595764 134.595765s60.385882 134.595765 134.595764 134.595765 134.595765-60.385882 134.595765-134.595765-60.385882-134.595765-134.595765-134.595765z"  horiz-adv-x="1024" />

    
    <glyph glyph-name="suppliergroup" unicode="&#58924;" d="M796.9 270.222v227.556l228.011 113.778-0.455-227.556zM512.455 668.444l-256-113.778-256.455 113.778 256.455 113.778 256-113.778 256 113.778 256.455-113.778-256.455-113.778zM228.011 270.222l-227.556 113.778-0.455 227.556 228.011-113.778v-227.556zM228.011-14.222l-227.556 113.778-0.455 227.556 228.011-113.778v-227.556zM512 611.556h0.91v-0.455l227.1-113.323v-227.556l-227.556 113.778-227.556-113.778v227.556l227.1 113.323v0.455zM512 327.111h0.91v-0.455l227.1-113.323v-227.556l-227.556 113.778-227.556-113.778v227.556l227.1 113.323v0.455zM1024.455 99.556l-227.556-113.778v227.556l228.011 113.778z"  horiz-adv-x="1024" />

    
    <glyph glyph-name="xiugai" unicode="&#58922;" d="M812.8-96h-640C83.2-96 12.8-25.6 12.8 64V704C12.8 793.6 83.2 864 172.8 864h492.8c19.2 0 38.4-12.8 38.4-32s-12.8-32-32-32H172.8c-51.2 0-89.6-44.8-89.6-96v-640c0-51.2 44.8-96 96-96h640c51.2 0 96 44.8 96 96V499.2c0 19.2 12.8 32 32 32s32-12.8 32-32V64c-6.4-89.6-76.8-160-166.4-160zM275.2 128c-6.4 0-19.2 6.4-25.6 12.8-12.8 12.8-12.8 32 0 44.8l704 640c12.8 12.8 32 12.8 44.8 0 12.8-12.8 12.8-32 0-44.8l-704-640c-6.4-12.8-12.8-12.8-19.2-12.8z"  horiz-adv-x="1024" />

    
    <glyph glyph-name="dingdan" unicode="&#58936;" d="M300 433.6h424.8v-48H300v48zM300 222.4H560v-48H300v48zM818.4-85.6H205.6c-12.8 0-24.8 2.4-36.8 7.2-11.2 4.8-21.6 11.2-29.6 20-8.8 8.8-15.2 18.4-20 29.6-4.8 12-7.2 24-7.2 36.8V645.6c0 12.8 2.4 24.8 7.2 36.8 4.8 11.2 11.2 21.6 20 29.6 8.8 8.8 18.4 15.2 29.6 20 12 4.8 24 7.2 36.8 7.2h92.8v-47.2H205.6c-25.6 0-47.2-20.8-47.2-47.2v-637.6c0-25.6 20.8-47.2 47.2-47.2h612c25.6 0 47.2 20.8 47.2 47.2V645.6c0 25.6-20.8 47.2-47.2 47.2H725.6v47.2h92.8c12.8 0 24.8-2.4 36.8-7.2 11.2-4.8 21.6-11.2 29.6-20 8.8-8.8 15.2-18.4 20-29.6 4.8-12 7.2-24 7.2-36.8v-637.6c0-12.8-2.4-24.8-7.2-36.8-4.8-11.2-11.2-21.6-20-29.6-8.8-8.8-18.4-15.2-29.6-20-12-5.6-24-8-36.8-8zM747.2 598.4H276.8V752c0 32.8 26.4 59.2 59.2 59.2h60.8c21.6 43.2 66.4 71.2 116 71.2 49.6 0 94.4-28 116-71.2h60.8c32.8 0 59.2-26.4 59.2-59.2l-1.6-153.6z m-423.2 47.2h376.8V752c0 6.4-5.6 12-12 12H595.2l-5.6 16c-11.2 32.8-42.4 55.2-77.6 55.2-35.2 0-66.4-22.4-77.6-55.2l-5.6-16H335.2c-6.4 0-12-5.6-12-12v-106.4z"  horiz-adv-x="1024" />

    
    <glyph glyph-name="shenpiguanli" unicode="&#58925;" d="M825.68 742.492H638.368C619.547 794.473 570.255 832.115 512 832.115S404.452 794.473 385.632 742.492H198.32c-49.293 0-89.623-40.33-89.623-89.623v-627.361c0-49.293 40.33-89.623 89.623-89.623h627.36c49.293 0 89.623 40.33 89.623 89.623V652.869c0 49.292-40.33 89.623-89.623 89.623z m-313.68 0c24.646 0 44.811-20.165 44.811-44.811S536.646 652.869 512 652.869s-44.811 20.165-44.811 44.811S487.354 742.492 512 742.492z m-89.623-627.361L243.131 294.377l63.184 63.184 116.062-115.614 295.308 295.308 63.184-63.632-358.492-358.492z"  horiz-adv-x="1024" />

    
    <glyph glyph-name="quanxianguanli1" unicode="&#58882;" d="M934.971374 807.207894c-4.582364 4.582364-11.74965 7.167287-18.916937 7.167286C640.290148 808.253613 529.608443 889.796185 529.138457 890.266171c-9.282224 7.637273-24.086783 7.637273-33.25151 0-1.527455 0-103.984404-75.785244-357.659351-75.785244-9.75221 0-19.974405 0-30.784083 0.469986-7.637273 0-13.864587-2.584923-18.446951-7.167286a26.648207 26.648207 0 0 1-8.224755-18.916937v-372.581407c0-4.112378-5.169846-405.832916 422.752413-543.186326a22.042344 22.042344 0 0 1 8.224755-1.057469 39.443576 39.443576 0 0 1 8.224755 1.057469c413.470189 129.128655 422.634916 538.016481 423.222399 542.598844V788.749193c-0.587483 6.70905-3.172406 13.864587-8.224755 18.458701z m-45.588643-45.00116v-346.379687c0-3.642392-10.222196-370.466469-377.633756-490.430398C129.415359 52.375119 133.527736 400.423256 133.527736 415.227815v346.967169h4.112378c217.838514 0 331.575127 51.698461 373.521378 76.842712 42.533734-25.144251 155.800361-76.842712 373.521379-76.842712zM656.387168 441.793774h-28.904139v57.808279c0 63.565607-52.05095 115.499061-115.499061 115.499061s-115.499061-51.933454-115.499061-115.499061v-57.808279H367.463271a29.033386 29.033386 0 0 1-28.904139-28.90414v-231.115618a29.033386 29.033386 0 0 1 28.904139-28.90414h288.806401a29.033386 29.033386 0 0 1 28.904139 28.90414V412.877885a28.786643 28.786643 0 0 1-28.786643 28.915889z m-216.663549 57.808279c0 40.418797 31.724055 72.260348 72.260349 72.260348s72.260348-31.724055 72.260348-72.260348v-57.808279h-144.520697z m202.21148-303.258471H381.915341V398.543312h260.019758zM511.983968 369.615673c-24.556769 0-43.356209-18.79944-43.356209-43.356209a43.403208 43.403208 0 0 1 21.619356-37.598881v-41.828754a21.619356 21.619356 0 1 1 43.238713 0v41.828754c13.042112 7.167287 21.619356 21.619356 21.619356 37.598881 0.117497 24.556769-18.681944 43.356209-43.121216 43.356209z"  horiz-adv-x="1024" />

    
    <glyph glyph-name="huiyuanguanli" unicode="&#58889;" d="M1074.780345 647.304579a33.974784 33.974784 0 0 1-34.65428 4.756469L805.020557 551.495687 612.043782 719.331121a95.129396 95.129396 0 0 1 37.372263 74.744526 101.924353 101.924353 0 0 1-203.848706 0A95.129396 95.129396 0 0 1 476.144645 719.331121L283.16787 551.495687 48.062362 651.381553a33.974784 33.974784 0 0 1-47.564698-36.692767l127.745189-714.829463a33.974784 33.974784 0 0 1 33.295289-27.859323h764.432647a33.974784 33.974784 0 0 1 33.295289 27.859323L1087.690763 614.688786a33.974784 33.974784 0 0 1-12.910418 32.615793zM544.094213 823.293962a31.936297 31.936297 0 0 0 33.974785-29.218315 34.65428 34.65428 0 0 0-67.949569 0A31.936297 31.936297 0 0 0 544.094213 823.293962zM190.076961-60.050431l-21.743862 122.309223h751.522229l-21.743862-122.309223z m741.329794 190.258792H156.102176L79.319164 564.406105l197.053749-84.936961A33.295289 33.295289 0 0 1 311.706689 483.546118L544.094213 687.394824l232.387525-203.848706a33.974784 33.974784 0 0 1 35.333776-5.435965l197.053749 84.93696z"  horiz-adv-x="1093" />

    
    <glyph glyph-name="goods" unicode="&#58898;" d="M512 752a144 144 0 0 0 144-144h80c0 123.71-100.29 224-224 224S288 731.71 288 608h80a144 144 0 0 0 144 144ZM826 608H198a70 70 0 0 1-70-70v-532a70 70 0 0 1 70-70h628a70 70 0 0 1 70 70V538a70 70 0 0 1-70 70Zm-10-547.2a44.8 44.8 0 0 0-44.8-44.8H252.8a44.8 44.8 0 0 0-44.8 44.8V496a32 32 0 0 0 32 32h531.2a44.8 44.8 0 0 0 44.8-44.8ZM656 608h80v-168.04h-80ZM288 608h80v-168.04h-80ZM696 488a84 84 0 1 1 84-84 84 84 0 0 1-84 84Zm0-104a20 20 0 1 0 20 20 20 20 0 0 0-20-20ZM328 488a84 84 0 1 1 84-84 84 84 0 0 1-84 84Zm0-104a20 20 0 1 0 20 20 20 20 0 0 0-20-20Z"  horiz-adv-x="1024" />

    
    <glyph glyph-name="shanchu1" unicode="&#59313;" d="M791.272727 46.545455c0-32.069818-26.088727-58.181818-58.181818-58.181819h-418.909091a58.251636 58.251636 0 0 0-58.181818 58.181819V663.272727h535.272727v-616.727272z m-418.909091 721.454545a11.636364 11.636364 0 0 0 11.636364 11.636364h279.272727a11.636364 11.636364 0 0 0 11.636364-11.636364V733.090909H372.363636V768zM965.818182 733.090909H744.727273V768C744.727273 812.916364 708.189091 849.454545 663.272727 849.454545h-279.272727C339.083636 849.454545 302.545455 812.916364 302.545455 768V733.090909H81.454545a34.909091 34.909091 0 1 1 0-69.818182H186.181818v-616.727272c0-70.586182 57.437091-128 128-128h418.909091c70.562909 0 128 57.413818 128 128V663.272727h104.727273a34.909091 34.909091 0 1 1 0 69.818182z m-442.181818-640A34.909091 34.909091 0 0 1 558.545455 128V500.363636a34.909091 34.909091 0 1 1-69.818182 0v-372.363636a34.909091 34.909091 0 0 1 34.909091-34.909091m-162.909091 0A34.909091 34.909091 0 0 1 395.636364 128V500.363636a34.909091 34.909091 0 1 1-69.818182 0v-372.363636a34.909091 34.909091 0 0 1 34.909091-34.909091m325.818182 0A34.909091 34.909091 0 0 1 721.454545 128V500.363636a34.909091 34.909091 0 1 1-69.818181 0v-372.363636a34.909091 34.909091 0 0 1 34.909091-34.909091"  horiz-adv-x="1024" />

    
    <glyph glyph-name="tubiaozhizuomobanyihuifu-" unicode="&#59027;" d="M787.1 525.89h72.56a15.5 15.5 0 0 1 15.5 15.5V681.58a5.25 5.25 0 0 1-1.54 3.75c-13 12.72-28.46 3.75-28.46-8.84v-115.43a5.17 5.17 0 0 0-5.17-5.17H782a5.25 5.25 0 0 1-3.75-1.54c-12.71-12.95-3.74-28.46 8.85-28.46zM727.1 540.4m-15 0a15 15 0 1 1 30 0 15 15 0 1 1-30 0ZM382.16 857.89h-345v-345a100 100 0 0 1 100-100h345v345a100 100 0 0 1-100 100z m20-365h-265a20 20 0 0 0-20 20v265h265a20 20 0 0 0 20-20zM542.16 757.89v-345h345a100 100 0 0 1 100 100v345h-345a100 100 0 0 1-100-100z m345-265h-265v265a20 20 0 0 0 20 20h265v-265a20 20 0 0 0-20-20zM37.16 254.89v-345h345a100 100 0 0 1 100 100v345h-345a100 100 0 0 1-100-100z m345-265h-265v265a20 20 0 0 0 20 20h265v-265a20 20 0 0 0-20-20zM887.16 354.89h-345v-345a100 100 0 0 1 100-100h345v345a100 100 0 0 1-100 100z m20-365h-265a20 20 0 0 0-20 20v265h265a20 20 0 0 0 20-20z"  horiz-adv-x="1024" />

    
    <glyph glyph-name="authority" unicode="&#58915;" d="M768 479.085714c43.885714 43.885714 43.885714 109.714286 0 153.6-43.885714 43.885714-117.028571 43.885714-160.914286 7.314286s-43.885714-109.714286 0-153.6 117.028571-51.2 160.914286-7.314286zM658.285714 530.285714c-14.628571 14.628571-14.628571 36.571429 0 51.2 14.628571 14.628571 36.571429 14.628571 51.2 0 14.628571-14.628571 14.628571-36.571429 0-51.2s-36.571429-14.628571-51.2 0z m-512-563.2c-14.628571-14.628571-36.571429-14.628571-51.2 0s-14.628571 36.571429 0 51.2l387.657143 387.657143-14.628571 21.942857c-58.514286 102.4-43.885714 226.742857 36.571428 314.514286 102.4 102.4 263.314286 102.4 358.4 0s102.4-263.314286 0-358.4c-80.457143-87.771429-204.8-102.4-307.2-43.885714l-21.942857 14.628571-160.914286-160.914286 80.457143-80.457142c14.628571-14.628571 36.571429-14.628571 51.2 0 14.628571 14.628571 14.628571 36.571429 0 51.2l-21.942857 29.257142 65.828572 65.828572c124.342857-58.514286 277.942857-36.571429 373.028571 65.828571 131.657143 131.657143 131.657143 336.457143 0 468.114286S585.142857 917.942857 453.485714 793.6c-95.085714-102.4-124.342857-248.685714-65.828571-373.028571L36.571429 69.48571400000003c-43.885714-43.885714-43.885714-109.714286 0-153.6 43.885714-43.885714 109.714286-43.885714 153.6 0l80.457142 80.457143-51.2 43.885714-73.142857-73.142857z m307.2 51.2l-131.657143 131.657143-51.2-58.514286 131.657143-131.657142c14.628571-14.628571 36.571429-14.628571 51.2 0 14.628571 21.942857 14.628571 43.885714 0 58.514285z"  horiz-adv-x="1024" />

    
    <glyph glyph-name="ic_opt_feature" unicode="&#58895;" d="M512 857.6L85.344 712.544V345.6c0-149.344 85.344-281.6 226.144-345.6l192-89.6 204.8 93.856c140.8 59.744 230.4 196.256 230.4 349.856v358.4L512.032 857.568z m341.344-503.456c0-119.456-68.256-226.144-179.2-273.056l-170.656-76.8-157.856 72.544c-106.656 46.944-174.944 153.6-174.944 268.8v307.2l341.344 115.2 341.344-115.2v-298.656zM341.344 512c0-81.056 55.456-145.056 128-166.4V128h85.344v42.656h42.656V256h-42.656v89.6c72.544 17.056 128 85.344 128 166.4 0 93.856-76.8 170.656-170.656 170.656s-170.656-76.8-170.656-170.656z m256 0c0-46.944-38.4-85.344-85.344-85.344s-85.344 38.4-85.344 85.344 38.4 85.344 85.344 85.344c46.944 0 85.344-38.4 85.344-85.344z"  horiz-adv-x="1024" />

    
    <glyph glyph-name="chongwubeibao" unicode="&#58885;" d="M512.3 719.1c64.1 0 122.2-26 164.3-68.1 42-42 68.1-100.1 68.1-164.3s-26-122.2-68.1-164.3c-42-42-100.1-68.1-164.3-68.1-64.2 0-122.2 26-164.3 68.1-42 42-68.1 100.1-68.1 164.3s26 122.2 68.1 164.3c42 42 100.1 68.1 164.3 68.1z m123.9-108.4c-31.7 31.7-75.5 51.3-124 51.3-48.4 0-92.2-19.6-124-51.3-31.7-31.7-51.3-75.5-51.3-124 0-48.4 19.6-92.2 51.3-124 31.7-31.7 75.6-51.3 124-51.3 48.4 0 92.2 19.6 124 51.3 31.7 31.7 51.3 75.5 51.3 124 0.1 48.4-19.5 92.3-51.3 124zM512.3 821c99 0 188.9-40.5 254.1-105.6C831.6 650.1 872 560.2 872 461.2V79c0-35.9-14.7-68.5-38.3-92.1-23.6-23.6-56.2-38.3-92.1-38.3H283c-35.9 0-68.5 14.7-92.1 38.3-23.6 23.6-38.3 56.2-38.3 92.1V461.2c0 99 40.5 188.9 105.6 254.1C323.4 780.5 413.3 821 512.3 821zM726 675c-54.9 54.9-130.5 88.9-213.8 88.9-83.2 0-158.9-34.1-213.8-88.9-54.9-54.9-88.9-130.5-88.9-213.8V79c0-20.2 8.3-38.5 21.6-51.8 13.3-13.3 31.7-21.6 51.8-21.6h458.6c20.2 0 38.5 8.3 51.8 21.6 13.3 13.3 21.6 31.7 21.6 51.8V461.2c0.1 83.2-34 158.9-88.9 213.8zM665.2 188.9c16.2 0 30.9-6.6 41.6-17.3 10.7-10.7 17.3-25.4 17.3-41.7 0-16.3-6.6-31-17.3-41.7-10.7-10.7-25.4-17.3-41.6-17.3-16.2 0-30.9 6.6-41.6 17.3-10.7 10.7-17.3 25.4-17.3 41.7 0 16.3 6.6 31 17.3 41.7 10.7 10.7 25.4 17.3 41.6 17.3z m9.8-49c-2.5 2.5-5.9 4-9.8 4-3.9 0-7.4-1.5-9.8-4v-0.1c-2.5-2.5-4.1-6-4.1-9.8 0-3.8 1.6-7.3 4.1-9.8v-0.1c2.5-2.5 5.9-4 9.8-4 3.9 0 7.4 1.5 9.8 4v0.1c2.5 2.5 4.1 6 4.1 9.8-0.1 3.8-1.6 7.3-4.1 9.9zM512.3 188.9c16.3 0 31-6.6 41.7-17.3 10.7-10.7 17.3-25.4 17.3-41.7 0-16.3-6.6-31-17.3-41.7-10.7-10.7-25.4-17.3-41.7-17.3-16.3 0-31 6.6-41.7 17.3-10.6 10.8-17.2 25.6-17.2 41.8 0 16.3 6.6 31 17.3 41.7 10.6 10.6 25.3 17.2 41.6 17.2z m9.8-49.1c-2.5 2.5-6 4.1-9.8 4.1-3.8 0-7.3-1.6-9.8-4.1-2.5-2.5-4.1-6-4.1-9.8 0-3.8 1.6-7.3 4.1-9.8 2.5-2.5 6-4.1 9.8-4.1 3.8 0 7.3 1.6 9.8 4.1 2.5 2.5 4.1 6 4.1 9.8 0 3.8-1.6 7.3-4.1 9.8zM359.4 188.9c16.2 0 30.9-6.6 41.6-17.3 10.7-10.7 17.3-25.4 17.3-41.7 0-16.3-6.6-31-17.3-41.7-10.7-10.7-25.4-17.3-41.6-17.3-16.2 0-30.9 6.6-41.6 17.3-10.7 10.7-17.3 25.4-17.3 41.7 0 16.3 6.6 31 17.3 41.7 10.7 10.7 25.4 17.3 41.6 17.3z m9.8-49c-2.5 2.5-5.9 4-9.8 4-3.9 0-7.4-1.5-9.8-4v-0.1c-2.5-2.5-4.1-6-4.1-9.8 0-3.8 1.6-7.3 4.1-9.8v-0.1c2.5-2.5 5.9-4 9.8-4 3.9 0 7.4 1.5 9.8 4v0.1c2.5 2.5 4.1 6 4.1 9.8 0 3.8-1.6 7.3-4.1 9.9z"  horiz-adv-x="1024" />

    
    <glyph glyph-name="chongwumeirong" unicode="&#58905;" d="M419.8 719.1c0 15.8 12.8 28.5 28.5 28.5 15.8 0 28.5-12.8 28.5-28.5v-138c0-15.8-12.8-28.5-28.5-28.5s-28.5 12.8-28.5 28.5v138zM530.2 719.1c0 15.8 12.8 28.5 28.5 28.5s28.5-12.8 28.5-28.5v-138c0-15.8-12.8-28.5-28.5-28.5-15.8 0-28.5 12.8-28.5 28.5v138zM557.8 88.5V318.6H449.2v-230.1c0-14.9 6.1-28.5 16-38.3 9.8-9.8 23.4-16 38.3-16 14.9 0 28.5 6.1 38.3 16 9.9 9.9 16 23.4 16 38.3z m57 258.7v-258.6c0-30.6-12.5-58.5-32.7-78.6-20.2-20.2-48-32.7-78.6-32.7-30.6 0-58.5 12.5-78.6 32.7-20.2 20.2-32.7 48-32.7 78.6V375.7h222.6v-28.5zM489.3 300.3L118 514.7l14.2 24.5c19 32.9 41.9 62.8 68.1 88.9 26.3 26.3 56.1 49.2 88.8 68.1 102.6 59.2 219.4 71.3 325.4 42.9 106-28.4 201.2-97.2 260.4-199.8l14.2-24.6-385.6-222.5-14.2 8.1zM196.5 535l307-177.2 307 177.2c-51.7 75.7-127.3 126.9-210.7 149.2-92 24.6-193.3 14.2-282.2-37.1-28.1-16.3-54-36.2-77-59.2-16.4-16.3-31.1-34.1-44.1-52.9z"  horiz-adv-x="1024" />

    
    <glyph glyph-name="chongwujiyang" unicode="&#58985;" d="M730.25 499.68V157.6H287.64V499.68M745.25 142.6H272.64V499.68h30V172.6h412.61V499.68h30V142.6zM157.24 155.23l695.67 0 0-135.74-695.67 0 0 135.74ZM785 4.49H225.11a82.87 82.87 0 0 0 0 165.74H785a82.87 82.87 0 0 0 0-165.74zM225.11 140.23a52.87 52.87 0 0 1 0-105.74H785a52.87 52.87 0 0 1 0 105.74zM369.81 165.9a139.14 139.14 0 1 0 278.27 0M648.08 150.9a15 15 0 0 0-15 15 124.14 124.14 0 1 1-248.27 0 15 15 0 0 0-30 0c0 85 69.19 154.1 154.13 154.1s154.14-69.1 154.14-154.1a15 15 0 0 0-15-15zM683.63 622.32a13.32 13.32 0 0 0-18.64 0.32l-58 58.77a39.42 39.42 0 0 0 56.14 55.36l12.85-13 14.19 13.44c16 15.2 41.93 14.8 56.82-1.53a39.43 39.43 0 0 0-2-55.17zM674.48 608.72a23.25 23.25 0 0 0-16.61 6.9l-58 58.76a49.42 49.42 0 1 0 70.38 69.41l6-6.06 7.07 6.7A50.88 50.88 0 0 0 720 758.21a48.63 48.63 0 0 0 34.47-15.84 49.67 49.67 0 0 0-2.55-69.16l-61.37-58.15a23.26 23.26 0 0 0-16.07-6.34z m-39.37 129.77a29.41 29.41 0 0 1-21-50.06l58-58.77a3.33 3.33 0 0 1 4.64-0.08l61.38 58.15a29.57 29.57 0 0 1 1.52 41.17 28.79 28.79 0 0 1-20.42 9.32 30.61 30.61 0 0 1-22.13-8.31l-14.19-13.44a10 10 0 0 0-14 0.24l-12.85 13a29.37 29.37 0 0 1-20.95 8.78zM828.93 577.66a6.84 6.84 0 0 0-9.57 0.16L789.61 608a20.24 20.24 0 0 0 28.82 28.42l6.6-6.69 7.28 6.9c8.24 7.81 21.53 7.6 29.18-0.79a20.24 20.24 0 0 0-1-28.32zM824.24 565.82a16.82 16.82 0 0 0-12 5L782.49 601a30.24 30.24 0 0 0 42.78 42.75l0.17 0.16a31.05 31.05 0 0 0 22.32 8.4 29.79 29.79 0 0 0 21.12-9.71 30.39 30.39 0 0 0-1.56-42.32l-31.51-29.88a16.77 16.77 0 0 0-11.57-4.58z m4.69 11.84zM804 632.44a10.24 10.24 0 0 1-7.27-17.44l27.58-28 29.26 27.72a10.3 10.3 0 0 1 0.53 14.33 10 10 0 0 1-7.07 3.2 11 11 0 0 1-7.84-2.94l-7.28-6.9a10 10 0 0 0-14 0.24l-6.6 6.69a10.2 10.2 0 0 1-7.31 3.1zM789.06 458.7L549.67 593.53a89.88 89.88 0 0 1-89-0.48L228.22 458.86a41.11 41.11 0 0 1-15.05-56.15 41.11 41.11 0 0 1 56.36-14.93l191 111.75a89.87 89.87 0 0 0 89.87 0.51l198.12-112.89a41.12 41.12 0 0 1 56 15.16 41.12 41.12 0 0 1-15.46 56.39zM768.74 366.79a55.67 55.67 0 0 0-27.65 7.32L543 487a75.06 75.06 0 0 1-74.87-0.43l-191-111.75a56.11 56.11 0 1 0-56.38 97L453.14 606a105.31 105.31 0 0 0 103.86 0.6l239.42-134.83a56.09 56.09 0 0 0-27.68-105z m-262.83 160a104.87 104.87 0 0 0 51.91-13.71L756 400.18a26.12 26.12 0 0 1 38.12 29.59 25.92 25.92 0 0 1-12.37 15.86L542.3 580.46a75.16 75.16 0 0 1-74.16-0.4L235.72 445.87A26.1 26.1 0 1 1 262 400.73l191 111.75a104.87 104.87 0 0 0 52.91 14.31z"  horiz-adv-x="1024" />

    
    <glyph glyph-name="chongwuxiyu" unicode="&#58987;" d="M782.68 46.88l-543.95 1.89a27.58 27.58 0 0 0-27.43 25.76l-40.65 237.33c-0.2 3-14 37.93-14 37.93a27.58 27.58 0 0 0 30.49 37.59s235.25-44.86 317.06-38.07c197.92 16.43 327.9 112.87 327.9 112.87 14.77 5.8 31.76-1.94 36.26-17.15a27.24 27.24 0 0 0-1.25-18.8s-13.26-31.53-13.49-34.65l-43.33-319.16a27.59 27.59 0 0 0-27.61-25.54zM782.78 31.21h-0.15l-543.95 1.88a43.41 43.41 0 0 0-43 39.51L155.22 309c-1.15 3.93-7.6 20.89-13.13 34.9A43.27 43.27 0 0 0 190 402.81h0.11c2.33-0.44 234.08-44.37 312.82-37.84 191.25 15.87 318.6 108.9 319.86 109.84l1.68 1.24 1.94 0.76a43.61 43.61 0 0 0 35-1.42 42.39 42.39 0 0 0 20.1-55.39c-5.17-12.3-11.21-27.3-12.45-31.27l-43.18-318a43.41 43.41 0 0 0-43.1-39.52zM186.2 313.94l40.69-237.56 0.06-0.81a11.94 11.94 0 0 1 11.84-11.12l544-1.89a12 12 0 0 1 11.87 11l0.1 0.94L838 393.28c0.24 2.56 1.35 7.44 14.62 39l0.1 0.23a11.47 11.47 0 0 1 0.57 8.05 10.8 10.8 0 0 1-5.69 6.61 12.17 12.17 0 0 1-8.3 0.88c-8.26-5.85-39.89-27.31-90.44-50.42-53.36-24.39-138.9-55.29-243.39-64-6.1-0.51-13-0.74-20.52-0.74-94.66 0-290.81 37.13-300.7 39a11.91 11.91 0 0 1-13.12-16.24l0.07-0.18c12.87-32.47 14.64-38.77 15-41.53z m-30.89-5.21z m713.62 79.62zM327.88 41.27v-11.48a27.58 27.58 0 0 0-27.68-27.49h-11.49a27.58 27.58 0 0 0-27.53 27.7v11.48M300.26-13.38h-11.64a43.26 43.26 0 0 0-43.11 43.41v11.49l31.35-0.11v-11.49A11.9 11.9 0 0 1 288.73 18h11.48a11.88 11.88 0 0 1 12 11.86v11.49l31.36-0.11v-11.49a43.28 43.28 0 0 0-43.26-43.11zM754.45 39.79v-11.48a27.58 27.58 0 0 0-27.68-27.49h-11.49a27.59 27.59 0 0 0-27.49 27.68v11.49M726.83-14.86h-11.64a43.26 43.26 0 0 0-43.11 43.42v11.48l31.35-0.11v-11.48a11.9 11.9 0 0 1 11.87-12H726.83a11.91 11.91 0 0 1 11.9 11.86V39.8l31.36-0.11v-11.48a43.32 43.32 0 0 0-43.26-43.07zM853.16 388.25l-42.87-315.83a27.58 27.58 0 0 0-27.61-25.53l-543.94 1.88a27.59 27.59 0 0 0-27.44 25.76l-40.37 235.68C283.25 279.67 562 217 853.16 388.25zM782.78 31.21h-0.16l-543.94 1.88a43.43 43.43 0 0 0-43 39.51l-44.35 259.18 23.67-6.45c60.27-16.38 153.78-37.94 269.68-36.08 142.66 2.29 277.41 40.14 400.49 112.52L873 418.13l-47.12-347.39a43.4 43.4 0 0 0-43.1-39.53zM190.5 288.81l36.39-212.43 0.05-0.81a12 12 0 0 1 11.85-11.12l543.94-1.88a11.93 11.93 0 0 1 11.87 11l0.1 0.95 38.68 284.58c-120.23-65-250.65-99-388.16-101.2-111.52-1.77-205.73 18.49-254.72 30.91zM761.8 420l-31.35 0.11 1 300.27a30.39 30.39 0 0 1-30.26 30.46l-189.89 0.66h-0.08a22.34 22.34 0 0 1-22.32-22.24l-0.32-91.3-31.35 0.11 0.31 91.29a53.74 53.74 0 0 0 53.87 53.5l189.89-0.66a61.78 61.78 0 0 0 61.5-61.93zM472.923 633.991a61.36 61.36 0 0 0 61.145-61.574l-122.72 0.429a61.36 61.36 0 0 0 61.575 61.145zM534.08 556.75H534l-122.72 0.42a15.68 15.68 0 0 0-15.62 15.73 77 77 0 0 0 77 76.78h0.34a77.06 77.06 0 0 0 76.78-77.31 15.67 15.67 0 0 0-15.68-15.62z m-104.22 31.71l85.82-0.29a45.76 45.76 0 0 1-42.8 30.15h-0.16a45.75 45.75 0 0 1-42.86-29.86zM473.74 491.19a8.36 8.36 0 0 0-8.33 8.39l0.13 36.68a8.36 8.36 0 1 0 16.72-0.06l-0.13-36.68a8.36 8.36 0 0 0-8.39-8.33zM473.57 437.85a8.36 8.36 0 0 0-8.33 8.39l0.09 26.2a8.36 8.36 0 0 0 8.36 8.33 8.35 8.35 0 0 0 8.33-8.39l-0.09-26.19a8.36 8.36 0 0 0-8.36-8.34zM423.13 495.08a8.36 8.36 0 0 0-7.2 12.61l17.77 30.07a8.36 8.36 0 0 0 14.4-8.51l-17.77-30.06a8.35 8.35 0 0 0-7.2-4.11zM400.59 440.94a8.36 8.36 0 0 0-6.88 13.12l18.34 26.57a8.36 8.36 0 0 0 13.76-9.5l-18.34-26.57a8.35 8.35 0 0 0-6.88-3.62zM524.38 494.73a8.35 8.35 0 0 0-7.23 4.16l-17.56 30.18a8.36 8.36 0 1 0 14.46 8.41l17.56-30.19a8.36 8.36 0 0 0-7.23-12.56zM546.58 440.44a8.33 8.33 0 0 0-6.92 3.66l-18.16 26.69a8.36 8.36 0 1 0 13.83 9.41l18.15-26.7a8.36 8.36 0 0 0-6.9-13.06z"  horiz-adv-x="1024" />

    
    <glyph glyph-name="chongwuwanju" unicode="&#58998;" d="M341.86 338.51m-247.61 0a247.61 247.61 0 1 1 495.22 0 247.61 247.61 0 1 1-495.22 0ZM931.64 170.38c0-36.82-38.92-66.68-86.92-66.68a107.28 107.28 0 0 0-43 8.71 33.61 33.61 0 0 1-27 0 107.23 107.23 0 0 0-42.94-8.71c-48 0-86.93 29.86-86.93 66.68 0 20.31 11.84 37.87 30.5 49.68a101.19 101.19 0 0 0 31.32 12.79V546.56l-2.84 0.69c-34.3 8.92-59 33.83-59 63.16 0 36.83 38.92 66.69 86.93 66.69a107.39 107.39 0 0 0 42.93-8.71 33.62 33.62 0 0 1 27 0 107.4 107.4 0 0 0 42.94 8.71c48 0 86.92-29.86 86.92-66.69 0-32.73-30.74-60-71.28-65.61l-2.17-108.42-4-199.84c18.44-1.56 35.17-7.51 48.32-16.48 17.95-12.17 29.22-29.89 29.22-49.68zM852.94 423.78l-4-157.84c18.44-1.55 12.14 32.17 25.29 23.2 30.48-1.95 11.2-106.88-101.16-67-37.09 13.17-93.45-9.45-93.45-9.45 9 5.72 10.21 46.84 21.88 49.54V534l-2.85 0.68c-34.29 8.93-59 33.84-59 63.17 0 36.83 38.92 66.69 86.93 66.69a107.3 107.3 0 0 0 42.92-8.71 33.64 33.64 0 0 1 27 0 107.36 107.36 0 0 0 42.94 8.71c48 0 86.92-29.86 86.92-66.69 0-32.73-30.74-60-71.28-65.61zM844.72 87.95a123.72 123.72 0 0 0-49.26 10 18 18 0 0 1-14.35 0 123.68 123.68 0 0 0-49.25-10c-26.67 0-51.9 8.09-71.06 22.78-20.39 15.65-31.62 36.83-31.62 59.65 0 18.84 7.68 36.36 22.2 50.66 10.51 10.36 24 18.43 39.63 23.7v290c-37.35 12.89-61.83 42.42-61.83 75.71 0 22.82 11.23 44 31.62 59.65 19.16 14.7 44.39 22.79 71.06 22.79a124 124 0 0 0 49.23-10 17.92 17.92 0 0 1 14.37 0 124 124 0 0 0 49.26 10c26.66 0 51.89-8.09 71-22.79 20.39-15.64 31.62-36.83 31.62-59.65 0-36.48-29.37-68-71.54-78.62l-1.91-95.73-3.72-185.93c44.89-9.13 77.17-41.56 77.17-79.75 0-22.82-11.23-44-31.62-59.65-19.11-14.77-44.34-22.82-71-22.82z m-56.44 43a49.47 49.47 0 0 0 19.8-4.13 92.09 92.09 0 0 1 36.64-7.39c19.77 0 38.19 5.78 51.87 16.28 12.44 9.54 19.29 21.85 19.29 34.65 0 25.32-27.68 47.48-63 50.46a15.76 15.76 0 0 0-14.43 16l4 199.84 2.16 108.42a15.75 15.75 0 0 0 13.57 15.29c16.65 2.32 31.72 9 42.42 18.7 7 6.34 15.28 16.93 15.28 31.31 0 12.8-6.85 25.11-19.29 34.66-13.68 10.5-32.1 16.28-51.87 16.28a92.22 92.22 0 0 1-36.63-7.32 49.55 49.55 0 0 0-39.62 0 92.09 92.09 0 0 1-36.61 7.39c-19.77 0-38.2-5.78-51.88-16.28-12.44-9.55-19.3-21.86-19.3-34.66 0-21.28 18.91-40.51 47.07-47.89l2.68-0.64a15.75 15.75 0 0 0 12.08-15.32v-313.88a15.77 15.77 0 0 0-12.2-15.22c-29.68-6.85-49.62-25.79-49.62-47.12 0-12.8 6.86-25.11 19.3-34.65 13.68-10.5 32.11-16.28 51.88-16.28a92 92 0 0 1 36.62 7.39 49.43 49.43 0 0 0 19.79 4.16zM783.51 279.85a15.75 15.75 0 0 0-15.75 15.75V485.2a15.75 15.75 0 1 0 31.5 0v-189.6a15.75 15.75 0 0 0-15.75-15.75zM592.62 338.51A247 247 0 0 0 512 155.72a201.76 201.76 0 0 0 9.31 356.62 246.84 246.84 0 0 0 71.31-173.83zM500.67 155.12c-10 0-20.09 2.82-30 8.48-21.94 12.57-42.61 39.32-58.2 75.33-14.27 33-22.46 69.26-22.46 99.58a181.78 181.78 0 0 0 37.34 110.92 184.76 184.76 0 0 0 94.47 65.1 10.5 10.5 0 0 0 5.89-20.16 163.6 163.6 0 0 1-83.64-57.65 160.88 160.88 0 0 1-33.06-98.21c0-53.89 30.62-134.07 70.1-156.69 13.15-7.53 25.68-7.59 38.32-0.18a10.5 10.5 0 0 0 10.63-18.11 57.7 57.7 0 0 0-29.39-8.41zM437.72 333.66h-77.68M437.72 323.16H360a10.5 10.5 0 0 0 0 21h77.68a10.5 10.5 0 0 0 0-21zM454.29 387.27l-72.05 33.3M454.28 376.77a10.4 10.4 0 0 0-4.39 1L377.83 411a10.5 10.5 0 1 0 8.81 19.07l72.05-33.29a10.5 10.5 0 0 0-4.41-20zM382.24 246.76l72.05 33.29M382.24 236.26a10.5 10.5 0 0 0-4.41 20l72.06 33.29a10.5 10.5 0 1 0 8.8-19.06l-72.05-33.29a10.45 10.45 0 0 0-4.4-0.94zM92.27 338.51a247 247 0 0 1 80.57-182.79 201.76 201.76 0 0 1-9.3 356.62 246.84 246.84 0 0 1-71.27-173.83zM184.22 155.12a57.7 57.7 0 0 0-29.43 8.41 10.5 10.5 0 0 0 10.63 18.11c12.63-7.41 25.17-7.35 38.32 0.18 39.47 22.62 70.09 102.8 70.09 156.69a160.94 160.94 0 0 1-33 98.21 163.64 163.64 0 0 1-83.64 57.65 10.5 10.5 0 0 0 5.81 20.16 184.7 184.7 0 0 0 94.46-65.1 181.71 181.71 0 0 0 37.34-110.92c0-30.32-8.18-66.61-22.45-99.58-15.59-36-36.26-62.76-58.2-75.33-9.84-5.65-19.92-8.48-29.93-8.48zM247.17 333.66h77.68M324.85 323.16h-77.68a10.5 10.5 0 1 0 0 21h77.68a10.5 10.5 0 0 0 0-21zM230.6 387.27l72.05 33.3M230.6 376.77a10.5 10.5 0 0 0-4.41 20l72.06 33.29a10.5 10.5 0 0 0 8.81-19.06L235 377.74a10.41 10.41 0 0 0-4.4-0.97zM302.65 246.76l-72.05 33.29M302.65 236.26a10.41 10.41 0 0 0-4.4 1l-72.06 33.29a10.5 10.5 0 1 0 8.81 19.03l72.06-33.29a10.5 10.5 0 0 0-4.41-20zM341.86 75.15a263.6 263.6 0 1 0 177.66 69 261.63 261.63 0 0 0-177.66-69z m0 495.22A231.86 231.86 0 1 1 507 501.28a230.35 230.35 0 0 1-165.14 69.09z"  horiz-adv-x="1024" />

    
    <glyph glyph-name="chongwushejiao" unicode="&#58883;" d="M87.8-55c-6.4 0-12.8 1.7-18.4 5.2-10.6 6.4-17 17.9-17 30.2V573.3c0 110.8 90.2 201 201 201h528.8c110.8 0 201-90.2 201-201v-328c0-110.8-90.2-201-201-201H288.4L104.1-51c-5.1-2.7-10.7-4-16.3-4z m165.6 758.5c-71.8 0-130.2-58.4-130.2-130.2v-534.7l140.3 72.6c5 2.6 10.6 4 16.3 4h502.4c71.8 0 130.2 58.4 130.2 130.2v328c0 71.8-58.4 130.2-130.2 130.2H253.4zM740.4 458.3H295.3c-19.6 0-35.4 15.9-35.4 35.4s15.9 35.4 35.4 35.4h445.1c19.6 0 35.4-15.9 35.4-35.4s-15.9-35.4-35.4-35.4zM541.6 272H295.3c-19.6 0-35.4 15.9-35.4 35.4 0 19.6 15.9 35.4 35.4 35.4h246.3c19.6 0 35.4-15.9 35.4-35.4S561.2 272 541.6 272z"  horiz-adv-x="1024" />

    
    <glyph glyph-name="chongwuxiaodu" unicode="&#58884;" d="M360.4 518.2c-11.9 0-22.9 6.1-29.1 16.2-6.2 10.1-6.8 22.7-1.5 33.3l45.9 91.7-76.7 9.4c-17.2 2.1-30 16.7-30 34V858.6c0 18.9 15.3 34.2 34.2 34.2H726c18.9 0 34.2-15.3 34.2-34.2v-207.7c0-9.8-4.2-19.1-11.5-25.6s-17.1-9.5-26.8-8.3l-118 14.5-228.7-109.9c-4.6-2.2-9.6-3.4-14.8-3.4z m-23 214.9l94.8-11.7c11-1.4 20.7-8 26-17.8 5.3-9.8 5.4-21.5 0.4-31.5l-22.8-45.6 147.4 70.8c5.9 2.8 12.5 3.9 19 3.1l89.5-11V824.3H337.4v-91.2z m0 0M726-8.3H333c-18.9 0-34.2 15.3-34.2 34.2 0 18.9 15.3 34.2 34.2 34.2h393c18.9 0 34.2-15.3 34.2-34.2 0-18.8-15.3-34.2-34.2-34.2z m0 0M726-127.1H303.2c-18.9 0-34.2 15.3-34.2 34.2 0 159.3 23 298.3 68.4 413.4 37 93.6 88.8 171.7 154 232 112.5 104.1 225.7 119 230.5 119.6 9.7 1.2 19.5-1.8 26.8-8.3 7.3-6.5 11.5-15.8 11.5-25.6v-731c0-19-15.3-34.3-34.2-34.3z m-388.2 68.4h354V594.5c-7-2.3-14.7-5-23-8.4-33.4-13.4-83.8-39.4-134.1-86.9-123.5-116.4-191.3-308.9-196.9-557.9z m0 0"  horiz-adv-x="1024" />

    
    <glyph glyph-name="chongwuxizao" unicode="&#58886;" d="M190.2 353.2c-15.8 0-28.6 12.8-28.6 28.6v358C161.6 822.1 228.6 889 310.9 889s149.3-67 149.3-149.3c0-15.8-12.8-28.6-28.6-28.6S403 723.9 403 739.7c0 50.8-41.3 92.1-92.1 92.1s-92.1-41.3-92.1-92.1v-358c0.1-15.7-12.7-28.5-28.6-28.5zM185-120c-7.3 0-14.6 2.8-20.2 8.4-11.2 11.2-11.2 29.3 0 40.5l73.5 73.5c11.2 11.2 29.3 11.2 40.5 0s11.2-29.3 0-40.5l-73.5-73.5c-5.7-5.6-13-8.4-20.3-8.4zM838.7-120c-7.3 0-14.6 2.8-20.2 8.4L745-38.1c-11.2 11.2-11.2 29.3 0 40.5s29.3 11.2 40.5 0l73.5-73.5c11.2-11.2 11.2-29.3 0-40.5-5.6-5.6-13-8.4-20.3-8.4zM725.4-46.5H295.8c-113 0-205 92-205 205V276.1c0 15.8 12.8 28.6 28.6 28.6s28.6-12.8 28.6-28.6v-117.6c0-81.5 66.3-147.8 147.8-147.8h429.6c81.5 0 147.8 66.3 147.8 147.8V276.1c0 15.8 12.8 28.6 28.6 28.6s28.6-12.8 28.6-28.6v-117.6c0-113-92-205-205-205zM725.4 89.5H295.8M725.4 60.8H295.8c-15.8 0-28.6 12.8-28.6 28.6S280 118 295.8 118h429.6c15.8 0 28.6-12.8 28.6-28.6s-12.8-28.6-28.6-28.6zM937.7 247.5H83.4c-42.9 0-77.9 34.9-77.9 77.9 0 42.9 34.9 77.9 77.9 77.9h854.3c42.9 0 77.9-34.9 77.9-77.9 0-43-34.9-77.9-77.9-77.9zM83.4 346c-11.4 0-20.7-9.3-20.7-20.6 0-11.4 9.3-20.7 20.7-20.7h854.3c11.4 0 20.7 9.3 20.7 20.7 0 11.4-9.3 20.6-20.7 20.6H83.4zM510.8 571H352.4c-15.8 0-28.6 12.8-28.6 28.6v57.8c0 59.4 48.4 107.8 107.8 107.8s107.8-48.4 107.8-107.8v-57.8c0-15.8-12.8-28.6-28.6-28.6zM381 628.3h101.2v29.2c0 27.9-22.7 50.6-50.6 50.6-27.9 0-50.6-22.7-50.6-50.6v-29.2zM360.1 520.3v-23.2M360.1 468.5c-15.8 0-28.6 12.8-28.6 28.6v23.2c0 15.8 12.8 28.6 28.6 28.6s28.6-12.8 28.6-28.6v-23.2c0-15.8-12.8-28.6-28.6-28.6zM431.6 520.3v-23.2M431.6 468.5c-15.8 0-28.6 12.8-28.6 28.6v23.2c0 15.8 12.8 28.6 28.6 28.6s28.6-12.8 28.6-28.6v-23.2c0-15.8-12.8-28.6-28.6-28.6zM503.1 520.3v-23.2M503.1 468.5c-15.8 0-28.6 12.8-28.6 28.6v23.2c0 15.8 12.8 28.6 28.6 28.6s28.6-12.8 28.6-28.6v-23.2c0-15.8-12.8-28.6-28.6-28.6z"  horiz-adv-x="1024" />

    
    <glyph glyph-name="guanbi" unicode="&#58916;" d="M836.45483398 754.78857422c13.27423096 0 24.34844947-4.32586646 33.13366699-13.1852417C878.35394287 732.74890136 882.7935183 721.72906494 882.7935183 708.44000244c0-12.9776001-4.48901344-23.99743653-13.36816429-32.85681176L577.51092529 384l291.91442872-291.47936988c8.87915016-8.85937523 13.3681643-19.87921166 13.36816429-32.96063256 0-13.1852417-4.43957543-24.30889893-13.20007323-33.06445336-8.79016089-8.85443115-19.86438012-13.28411842-33.13861109-13.28411842-13.07153344 0-24.02215553 4.53350806-32.95074438 13.49670411L512 318.49401879000004l-291.5040896-291.78588891c-8.90881324-8.96319604-19.87426758-13.49670411-32.96063184-13.4967041-13.2643435 0-24.31878638 4.42968727-33.14355517 13.2890625C145.6262815 35.25109864000001 141.21636987 46.37475586000005 141.21636987 59.559997560000056c0 13.08142089 4.45935035 24.10125732 13.36816358 32.96063256L446.47918725 384 154.58453345 675.58813477C145.67572021 684.43762183 141.21636987 695.46240234 141.21636987 708.43505836c0 13.2890625 4.40991234 24.30889893 13.17535352 33.16333008C163.21649146 750.4627077600001 174.26599097 754.78857422 187.53527856 754.78857422c13.08142089 0 24.05181861-4.42968727 32.96063184-13.38793922L512.00494408 449.60485864l291.50408889 291.78588819C812.43267846 750.36383032 823.37835718 754.78857422 836.45483398 754.78857422"  horiz-adv-x="1024" />

    
    <glyph glyph-name="gougou" unicode="&#58887;" d=""  horiz-adv-x="1024" />

    
    <glyph glyph-name="zengjia" unicode="&#58997;" d="M760.832 640a385.536 385.536 0 1 1 112.64-272.384A382.464 382.464 0 0 1 760.832 640z m-79.872-299.008h-165.376v-165.888a27.648 27.648 0 1 0-55.296 0v165.888H295.424a27.648 27.648 0 0 0 0 55.296H460.8V562.176a27.648 27.648 0 1 0 55.296 0v-165.888h164.864a27.648 27.648 0 0 0 0-55.296z"  horiz-adv-x="1024" />

    
    <glyph glyph-name="shouye" unicode="&#58920;" d="M998.870372 445.640348L552.428633 858.86887l-0.26713 0.200347-1.558261 1.246609-0.601044 0.467478-1.892174 1.380174-0.289391 0.222609-2.203826 1.446956-0.022261 0.022261a63.532522 63.532522 0 0 1-74.50713-5.097739L24.756981 445.640348a57.878261 57.878261 0 0 1-5.832348-83.812174c22.394435-24.665043 61.417739-27.225043 87.062261-5.632l42.295652 35.617391v-348.560695c0-82.075826 24.887652-148.880696 110.146783-148.880696h92.16c34.05913 0 61.68487 26.601739 61.684869 59.392V234.162087c0 16.562087 14.024348 30.052174 31.209739 30.052174h136.592696c17.229913 0 31.276522-13.490087 31.276522-30.052174v-273.430261c0-4.051478 0.422957-8.102957 1.29113-12.109913l1.491478-6.967652c5.965913-27.514435 31.187478-47.282087 60.416-47.282087h90.646261c85.25913 0 110.146783 66.80487 110.146783 148.880696V391.791304l42.295652-35.59513a62.998261 62.998261 0 0 1 40.603826-14.647652c17.14087 0 34.259478 6.856348 46.458435 20.279652a57.878261 57.878261 0 0 1-5.832348 83.812174z"  horiz-adv-x="1024" />

    
    <glyph glyph-name="chongwuxiujian" unicode="&#58901;" d="M581.688889 608.711111l78.222222-78.222222c2.844444-2.844444 2.844444-7.111111 0-9.955556L640 499.2c-2.844444-2.844444-7.111111-2.844444-9.955556 0l-78.222222 78.222222c-8.533333 8.533333-8.533333 21.333333 0 29.866667 7.111111 8.533333 21.333333 8.533333 29.866667 1.422222zM645.688889 672.711111l78.222222-78.222222c2.844444-2.844444 2.844444-7.111111 0-9.955556l-19.911111-19.911111c-2.844444-2.844444-7.111111-2.844444-9.955556 0l-78.222222 78.222222c-8.533333 8.533333-8.533333 21.333333 0 29.866667 7.111111 7.111111 21.333333 7.111111 29.866667 0zM718.222222 726.755556l78.222222-78.222223c2.844444-2.844444 2.844444-7.111111 0-9.955555l-19.911111-19.911111c-2.844444-2.844444-7.111111-2.844444-9.955555 0L688.355556 696.888889c-8.533333 8.533333-8.533333 21.333333 0 29.866667 8.533333 8.533333 21.333333 8.533333 29.866666 0zM665.6 261.688889c-12.8-15.644444-35.555556-17.066667-51.2-5.688889L169.244444 631.466667c-15.644444 12.8-17.066667 35.555556-4.266666 49.777777 12.8 15.644444 35.555556 17.066667 49.777778 4.266667l446.577777-375.466667c15.644444-11.377778 17.066667-34.133333 4.266667-48.355555zM358.4 261.688889c12.8-15.644444 35.555556-17.066667 51.2-5.688889l446.577778 375.466667c15.644444 12.8 17.066667 35.555556 4.266666 49.777777-12.8 15.644444-35.555556 17.066667-49.777777 4.266667L362.666667 311.466667c-15.644444-12.8-17.066667-35.555556-4.266667-49.777778zM760.888889 341.333333c-86.755556 0-156.444444-69.688889-156.444445-156.444444s69.688889-156.444444 156.444445-156.444445 156.444444 69.688889 156.444444 156.444445-69.688889 156.444444-156.444444 156.444444z m0-256c-55.466667 0-99.555556 44.088889-99.555556 99.555556s44.088889 99.555556 99.555556 99.555555 99.555556-44.088889 99.555555-99.555555-44.088889-99.555556-99.555555-99.555556zM277.333333 341.333333c-86.755556 0-156.444444-69.688889-156.444444-156.444444s69.688889-156.444444 156.444444-156.444445 156.444444 69.688889 156.444445 156.444445-69.688889 156.444444-156.444445 156.444444z m0-256c-55.466667 0-99.555556 44.088889-99.555555 99.555556s44.088889 99.555556 99.555555 99.555555 99.555556-44.088889 99.555556-99.555555-44.088889-99.555556-99.555556-99.555556z"  horiz-adv-x="1024" />

    
    <glyph glyph-name="chongwuyaopin" unicode="&#58902;" d="M829.155556 51.2l-56.888889 29.866667c-9.955556 5.688889-14.222222 18.488889-8.533334 28.444444s18.488889 14.222222 28.444445 8.533333l56.888889-29.866666c9.955556-5.688889 14.222222-18.488889 8.533333-28.444445s-18.488889-14.222222-28.444444-8.533333zM836.266667 8.533333l51.2 102.4c14.222222 28.444444 2.844444 62.577778-25.6 76.8s-62.577778 2.844444-76.8-25.6l-51.2-102.4c-14.222222-28.444444-2.844444-62.577778 25.6-76.8 28.444444-12.8 62.577778-1.422222 76.8 25.6z m-64 32.711111l51.2 102.4c2.844444 7.111111 11.377778 9.955556 18.488889 7.111112 7.111111-2.844444 9.955556-11.377778 7.111111-18.488889L797.866667 28.444444c-2.844444-7.111111-11.377778-9.955556-18.488889-7.111111-7.111111 4.266667-9.955556 12.8-7.111111 19.911111zM199.111111 725.333333v-85.333333c0-39.822222 31.288889-71.111111 71.111111-71.111111h284.444445c39.822222 0 71.111111 31.288889 71.111111 71.111111v85.333333c0 39.822222-31.288889 71.111111-71.111111 71.111111H270.222222c-39.822222 0-71.111111-31.288889-71.111111-71.111111z m355.555556-99.555555H270.222222c-8.533333 0-14.222222 5.688889-14.222222 14.222222v85.333333c0 8.533333 5.688889 14.222222 14.222222 14.222223h284.444445c8.533333 0 14.222222-5.688889 14.222222-14.222223v-85.333333c0-8.533333-5.688889-14.222222-14.222222-14.222222zM128 312.888889v-128c0-39.822222 31.288889-71.111111 71.111111-71.111111h142.222222c39.822222 0 71.111111 31.288889 71.111111 71.111111v128c0 39.822222-31.288889 71.111111-71.111111 71.111111H199.111111c-39.822222 0-71.111111-31.288889-71.111111-71.111111z m213.333333-142.222222H199.111111c-8.533333 0-14.222222 5.688889-14.222222 14.222222v128c0 8.533333 5.688889 14.222222 14.222222 14.222222h142.222222c8.533333 0 14.222222-5.688889 14.222223-14.222222v-128c0-8.533333-5.688889-14.222222-14.222223-14.222222zM128 425.244444v-324.266666c0-64 51.2-115.2 115.2-115.2H583.111111c62.577778 0 113.777778 51.2 113.777778 113.777778V425.244444c0 64-51.2 115.2-115.2 115.2H243.2C179.2 540.444444 128 489.244444 128 425.244444zM583.111111 42.666667H243.2c-32.711111 0-58.311111 25.6-58.311111 58.311111V425.244444c0 32.711111 25.6 58.311111 58.311111 58.311112h338.488889c32.711111 0 58.311111-25.6 58.311111-58.311112V99.555556c0-31.288889-25.6-56.888889-56.888889-56.888889z"  horiz-adv-x="1024" />

    
    <glyph glyph-name="chongwuyiliao" unicode="&#58903;" d="M113.777778 469.333333h768v-56.888889H113.777778zM483.555556 170.666667V327.111111c0 15.644444 12.8 28.444444 28.444444 28.444445s28.444444-12.8 28.444444-28.444445v-156.444444c0-15.644444-12.8-28.444444-28.444444-28.444445s-28.444444 12.8-28.444444 28.444445zM597.333333 213.333333H426.666667c-15.644444 0-28.444444 12.8-28.444445 28.444445s12.8 28.444444 28.444445 28.444444h170.666666c15.644444 0 28.444444-12.8 28.444445-28.444444s-12.8-28.444444-28.444445-28.444445zM113.777778 512v-384c0-62.577778 51.2-113.777778 113.777778-113.777778h568.888888c62.577778 0 113.777778 51.2 113.777778 113.777778V512c0 62.577778-51.2 113.777778-113.777778 113.777778H227.555556c-62.577778 0-113.777778-51.2-113.777778-113.777778z m682.666666-440.888889H227.555556c-31.288889 0-56.888889 25.6-56.888889 56.888889V512c0 31.288889 25.6 56.888889 56.888889 56.888889h568.888888c31.288889 0 56.888889-25.6 56.888889-56.888889v-384c0-31.288889-25.6-56.888889-56.888889-56.888889zM369.777778 611.555556v28.444444c0 31.288889 25.6 56.888889 56.888889 56.888889h170.666666c31.288889 0 56.888889-25.6 56.888889-56.888889v-28.444444h56.888889v28.444444c0 62.577778-51.2 113.777778-113.777778 113.777778H426.666667c-62.577778 0-113.777778-51.2-113.777778-113.777778v-28.444444h56.888889z"  horiz-adv-x="1024" />

    
    <glyph glyph-name="guanliyuan" unicode="&#58904;" d="M756.565333 0A85.333333 85.333333 0 0 0 682.666667-42.666667H85.333333a85.333333 85.333333 0 0 0-85.333333 85.333334c0 133.12 111.957333 245.845333 266.581333 284.458666a256 256 0 1 0 234.794667 0C656.085333 288.512 768 175.786667 768 42.666667c0-15.530667-4.138667-30.122667-11.434667-42.666667h79.829334-79.786667zM85.333333 0h597.333334a42.666667 42.666667 0 0 1 42.666666 42.666667c0 141.397333-152.832 256-341.333333 256s-341.333333-114.602667-341.333333-256a42.666667 42.666667 0 0 1 42.666666-42.666667z m298.666667 341.333333A213.333333 213.333333 0 1 1 384 768a213.333333 213.333333 0 0 1 0-426.666667z m452.181333-340.650666a19.456 19.456 0 0 0-5.205333-0.682667 20.864 20.864 0 0 0-20.309333 21.333333 20.864 20.864 0 0 0 21.376 21.333334h110.677333c22.442667 0 40.661333 19.114667 40.661333 42.666666 0 140.245333-143.232 254.165333-320.810666 256v0.128A20.864 20.864 0 0 0 640 362.666667a20.864 20.864 0 0 0 21.504 21.333333 192 192 0 0 1 0 384H661.333333a21.333333 21.333333 0 1 0 0 42.666667h0.170667A234.666667 234.666667 0 0 0 772.266667 369.194667C918.442667 330.069333 1024 217.728 1024 85.333333c0-47.146667-36.394667-85.333333-81.28-85.333333h-106.325333a30.805333 30.805333 0 0 0-0.213334 0.682667z"  horiz-adv-x="1024" />

    
    <glyph glyph-name="yijianguanli" unicode="&#58980;" d="M684.8 551.4c0 16.8-13.6 30.4-30.4 30.4H265.8c-16.8 0-30.4-13.6-30.4-30.4S249 521 265.8 521h388.8c16.6 0 30.2 13.6 30.2 30.4zM265.8 452c-16.8 0-30.4-13.6-30.4-30.4s13.6-30.4 30.4-30.4h199.4c16.8 0 30.4 13.6 30.4 30.4S482 452 465.2 452H265.8zM475.3 185.5L320 93.7l-8.8 51.1c-4.9 28.1-29.2 48.8-57.9 48.8h-56.8c-9.3 0-18.1 3.6-24.8 10.4-6.7 6.7-10.4 15.5-10.4 24.8V674.3c0 9.3 3.6 18.1 10.4 24.8 6.7 6.7 15.5 10.4 24.8 10.4h611.8c9.3 0 18.1-3.6 24.8-10.4 6.7-6.7 10.4-15.5 10.4-24.8v-169c0-16.2 13.1-29.4 29.4-29.4 16.2 0 29.4 13.1 29.4 29.4v169c0 51.6-42.2 93.9-93.9 93.9H196.6c-51.6 0-93.9-42.2-93.9-93.9v-445.6c0-51.6 42.2-93.9 93.9-93.9h56.8l23.2-135 228.5 135h29.8c16.2 0 29.4 13.1 29.4 29.4 0 16.2-13.1 29.4-29.4 29.4h-29.8c-10.5 0-20.8-2.9-29.8-8.1zM735.1 118.4c-30 0-58.7 7-85.3 20.8-8.1 4.2-12.6 13.2-11 22.2 0.4 2.3 0.6 4.6 0.6 6.5 0 19.2-15.6 34.7-34.7 34.7-2.7 0-5.4-0.3-7.8-0.8-9-2-18.2 2-22.8 9.9-14.8 25.5-23.3 54.6-24.6 84.3-0.4 9 5 17.3 13.5 20.5 2.5 1 4.4 1.8 5.9 2.7 0.1 0 0.2 0.1 0.2 0.1 8 4.6 13.8 12.1 16.2 21.1 2.4 8.9 1.2 18.2-3.4 26.2-1.4 2.3-3 4.5-4.9 6.6-6.2 6.8-7.2 16.8-2.6 24.7 14.9 25.5 35.9 47.4 60.6 63.3 7.9 5.1 18.3 4.3 25.3-2 1.1-1 2.8-2.2 4.9-3.4 16.5-9.5 37.8-3.8 47.4 12.8 0 0 0 0.1 0.1 0.1 1.3 2.2 2.3 4.5 3 6.9 2.7 8.9 10.8 14.9 20.1 14.9 30 0 58.7-7 85.3-20.8 8.1-4.2 12.6-13.2 11-22.2-0.4-2.3-0.6-4.6-0.6-6.5 0-19.2 15.6-34.7 34.7-34.7 2.7 0 5.4 0.3 7.8 0.8 9 2 18.2-2 22.8-10 14.8-25.6 23.3-54.7 24.6-84.3 0.4-9-5-17.3-13.5-20.5-2.5-1-4.4-1.8-5.9-2.7-0.1 0-0.2-0.1-0.2-0.1-8-4.6-13.8-12.1-16.2-21.1-2.4-8.9-1.2-18.2 3.4-26.2 1.4-2.3 3-4.5 4.9-6.6 6.2-6.8 7.2-16.8 2.6-24.7-14.9-25.5-35.9-47.4-60.6-63.3-7.9-5.1-18.3-4.3-25.3 2-1.1 1-2.8 2.2-4.9 3.4-16.5 9.5-37.8 3.8-47.4-12.8 0 0 0-0.1-0.1-0.1-1.3-2.2-2.3-4.5-3-6.9-2.7-8.7-10.8-14.8-20.1-14.8z m-53.7 52.4c12.9-5.3 26.4-8.5 40.4-9.8 0.1 0.1 0.2 0.3 0.3 0.4 20.7 35.7 66 48.6 102.1 29.5 10.9 8.5 20.6 18.7 28.7 30-0.1 0.1-0.1 0.2-0.2 0.3-10.3 17.7-13 38.4-7.7 58.2 5 18.9 16.8 34.8 33.2 45.1-1.9 13.9-5.8 27.3-11.6 40h-0.4c-41.3 0-75.1 32.8-76.7 73.7-12.9 5.3-26.4 8.5-40.4 9.8-0.1-0.1-0.2-0.3-0.2-0.4-10.3-17.7-26.8-30.4-46.6-35.7-18.8-5.1-38.5-2.9-55.6 6.2-10.9-8.5-20.6-18.7-28.7-30 0.1-0.1 0.1-0.2 0.2-0.3 10.3-17.7 13-38.4 7.7-58.2-5-18.8-16.8-34.7-33.2-45.1 1.9-13.8 5.8-27.3 11.6-40h0.4c41.3 0.1 75.1-32.7 76.7-73.7z m54 48.3c-47 0-85.2 38.2-85.2 85.2s38.2 85.2 85.2 85.2 85.2-38.2 85.2-85.2-38.2-85.2-85.2-85.2z m0 128.5c-23.8 0-43.2-19.4-43.2-43.2s19.4-43.2 43.2-43.2 43.2 19.4 43.2 43.2-19.4 43.2-43.2 43.2z"  horiz-adv-x="1024" />

    
    <glyph glyph-name="shenpiguanli1" unicode="&#58921;" d="M607.7 408.2c-11.1 0-21.8 5.7-27.7 16-8.8 15.3-3.6 34.9 11.7 43.7 49.4 28.5 80.1 81.8 80.1 139 0 88.3-71.5 160.2-159.5 160.2-87.9 0-159.5-71.9-159.5-160.2 0-57.2 30.7-110.4 80.1-139 15.3-8.8 20.5-28.4 11.7-43.7-8.8-15.3-28.4-20.5-43.7-11.7-33.5 19.3-61.5 47.2-81.2 80.5-20.2 34.4-30.9 73.7-30.9 113.9 0 59.9 23.2 116.1 65.4 158.5 42.2 42.4 98.3 65.7 158.1 65.7s115.8-23.3 158.1-65.7c42.2-42.3 65.4-98.6 65.4-158.5 0-40.1-10.7-79.5-31-113.9-19.6-33.4-47.7-61.2-81.2-80.5-4.9-2.9-10.4-4.3-15.9-4.3zM708.6 196.7c-12 0-23.5 6.8-29 18.4l-100 212.1c-7.5 16-0.7 35.1 15.3 42.6s35.1 0.7 42.6-15.3l100.1-212.2c7.5-16 0.7-35.1-15.3-42.6-4.5-2-9.1-3-13.7-3zM315.8 196c-4.6 0-9.2 1-13.6 3.1-16 7.5-22.8 26.6-15.3 42.6L387 453.8c7.5 16 26.6 22.8 42.6 15.3s22.8-26.6 15.3-42.6L344.8 214.4c-5.5-11.6-17-18.4-29-18.4zM864-65.2H159.7c-52.9 0-96 43.1-96 96V159.2c0 52.9 43.1 96 96 96H864c52.9 0 96-43.1 96-96v-128.5c0-52.9-43.1-95.9-96-95.9zM159.7 191.2c-17.6 0-32-14.4-32-32v-128.5c0-17.6 14.4-32 32-32H864c17.6 0 32 14.4 32 32V159.2c0 17.6-14.4 32-32 32H159.7z"  horiz-adv-x="1024" />

    
    <glyph glyph-name="chaxunyewu" unicode="&#58888;" d="M822.5 42c29.7 38.8 45.8 86.1 45.8 135.8 0 59.8-23.3 116.1-65.6 158.4-42.3 42.3-98.6 65.6-158.4 65.6-59.8 0-116.1-23.3-158.4-65.6-42.3-42.3-65.6-98.6-65.6-158.4 0-59.8 23.3-116.1 65.6-158.4 42.3-42.3 98.6-65.6 158.4-65.6 49.7 0 96.9 16.1 135.8 45.8l118.8-118.8c11.7-11.7 30.8-11.7 42.4 0 11.7 11.7 11.7 30.8 0 42.4L822.5 42z m-62.3 19.8c-63.9-63.9-168-63.9-231.9 0s-63.9 168 0 231.9 168 63.9 231.9 0 64-168 0-231.9zM212 590.2h580c16.5 0 30 13.5 30 30s-13.5 30-30 30H212c-16.5 0-30-13.5-30-30s13.5-30 30-30zM438 368.2c0 16.5-13.5 30-30 30H212c-16.5 0-30-13.5-30-30s13.5-30 30-30h196c16.5 0 30 13.5 30 30zM212 146.2c-16.5 0-30-13.5-30-30s13.5-30 30-30h132c16.5 0 30 13.5 30 30s-13.5 30-30 30H212zM866 896H158c-51.9 0-94-42.1-94-94v-836c0-51.9 42.1-94 94-94h388c16.6 0 30 13.4 30 30s-13.4 30-30 30H158c-18.8 0-34 15.2-34 34V802c0 18.8 15.2 34 34 34h708c18.8 0 34-15.2 34-34v-516c0-16.6 13.4-30 30-30s30 13.4 30 30V802c0 51.9-42.1 94-94 94z"  horiz-adv-x="1024" />

    
    <glyph glyph-name="piliangguanli" unicode="&#58992;" d="M793.343512 25.550357H76.775179c-42.482265 0-76.775179 34.292913-76.775179 76.775179V818.893869C0 861.376135 34.292913 895.669048 76.775179 895.669048h537.42625c14.331367 0 25.591726-11.26036 25.591726-25.591726s-11.26036-25.591726-25.591726-25.591727H76.775179c-14.331367 0-25.591726-11.26036-25.591727-25.591726v-716.568333c0-14.331367 11.26036-25.591726 25.591727-25.591726h716.568333c14.331367 0 25.591726 11.26036 25.591726 25.591726v281.508988c0 14.331367 11.26036 25.591726 25.591726 25.591726s25.591726-11.26036 25.591727-25.591726v-281.508988c0-42.482265-34.292913-76.775179-76.775179-76.775179zM946.893869-128H281.508988c-14.331367 0-25.591726 11.26036-25.591726 25.591726s11.26036 25.591726 25.591726 25.591726h665.384881c14.331367 0 25.591726 11.26036 25.591726 25.591727V460.609702c0 14.331367 11.26036 25.591726 25.591727 25.591727s25.591726-11.26036 25.591726-25.591727v-511.834523c0-42.482265-34.292913-76.775179-76.775179-76.775179zM485.219129 329.06823c-20.473381 0-39.411258 8.189352-54.25446 22.520719L238.003054 545.062399c-10.23669 10.23669-10.23669 26.103561 0 36.340251s26.103561 10.23669 36.340251 0l193.47345-193.47345c5.118345-5.118345 11.26036-7.677518 18.426043-7.677518 6.653849 0 13.307698 3.071007 18.426043 8.189353l475.494272 499.550495c9.724856 10.23669 26.103561 10.748525 36.340251 1.023669 10.23669-9.724856 10.748525-26.103561 1.02367-36.340251L541.009092 353.124452c-14.331367-15.355036-33.781079-23.544388-54.766294-24.056222h-1.023669z"  horiz-adv-x="1024" />

    


  </font>
</defs>
</svg>
